/* XPM */
static char *a0aeba542f9a4cd6b94e9e496fed96d5k5eLQUYYnxi8ek3B[] = {
/* columns rows colors chars-per-pixel */
"64 64 182 2 ",
"   c #3F882E",
".  c #3C942F",
"X  c #378F37",
"o  c #3B8C34",
"O  c #30863A",
"+  c #368D3B",
"@  c #3B8F3B",
"#  c #369337",
"$  c #3C9335",
"%  c #3D9936",
"&  c #36923B",
"*  c #3C943C",
"=  c #3D9B3C",
"-  c #3EA23E",
";  c #40872F",
":  c #448B2E",
">  c #46962D",
",  c #4E942F",
"<  c #438D33",
"1  c #4A8F34",
"2  c #439435",
"3  c #4B9434",
"4  c #439B35",
"5  c #4C9B35",
"6  c #43953B",
"7  c #4A963B",
"8  c #449B3D",
"9  c #4A9C3C",
"0  c #539D36",
"q  c #599B31",
"w  c #50963A",
"e  c #529D3C",
"r  c #5A9E3B",
"t  c #4AA036",
"y  c #45A23E",
"u  c #4BA23E",
"i  c #4DA93E",
"p  c #54A33D",
"a  c #59A53C",
"s  c #53A93F",
"d  c #59A93E",
"f  c #368C41",
"g  c #369442",
"h  c #3C9642",
"j  c #369944",
"k  c #3D9C43",
"l  c #3B944A",
"z  c #369A49",
"x  c #3D9D4A",
"c  c #379750",
"v  c #3D9B50",
"b  c #3EA244",
"n  c #3CA947",
"m  c #3EA24B",
"M  c #3DA94B",
"N  c #3EA452",
"B  c #3FA951",
"V  c #429742",
"C  c #4B9740",
"Z  c #449D43",
"A  c #4A9E42",
"S  c #419749",
"D  c #429E4A",
"F  c #489E4A",
"G  c #529E42",
"H  c #419E51",
"J  c #44A344",
"K  c #4DA542",
"L  c #48A045",
"P  c #48A146",
"I  c #4BA346",
"U  c #4CA245",
"Y  c #4EA345",
"T  c #48A745",
"R  c #4BA547",
"E  c #48A646",
"W  c #4CA545",
"Q  c #4DA744",
"!  c #4FA647",
"~  c #4BA343",
"^  c #45A945",
"/  c #49A847",
"(  c #4DA844",
")  c #4EAB45",
"_  c #4EA947",
"`  c #4DAE46",
"'  c #4CAA45",
"]  c #43A048",
"[  c #42A14A",
"{  c #44A148",
"}  c #47A148",
"|  c #41A749",
" . c #47A548",
".. c #47A648",
"X. c #47A74B",
"o. c #40A24F",
"O. c #45A54D",
"+. c #46A44D",
"@. c #44A64D",
"#. c #46A64D",
"$. c #44A34B",
"%. c #4CA34A",
"&. c #49A649",
"*. c #4BA748",
"=. c #4AA44A",
"-. c #4AA74A",
";. c #4CA648",
":. c #4DA64A",
">. c #48A34D",
",. c #4BA34C",
"<. c #4AA44A",
"1. c #45A84A",
"2. c #47A84B",
"3. c #47AE49",
"4. c #45A84C",
"5. c #45AA4B",
"6. c #48A84B",
"7. c #49AA4A",
"8. c #4BAA4B",
"9. c #4DA94A",
"0. c #4FA94B",
"q. c #4FAF4B",
"w. c #4BA94C",
"e. c #48AA4E",
"r. c #4CAB4B",
"t. c #54A240",
"y. c #53A544",
"u. c #52A443",
"i. c #5AA342",
"p. c #56A942",
"a. c #54AB45",
"s. c #55AD44",
"d. c #53AA44",
"f. c #59AB42",
"g. c #5AAB44",
"h. c #51A64B",
"j. c #52A54C",
"k. c #52A64B",
"l. c #5BA74A",
"z. c #53A948",
"x. c #52AB4A",
"c. c #5BAC4B",
"v. c #4DB145",
"b. c #47B149",
"n. c #4CB14D",
"m. c #4FB94C",
"M. c #52B145",
"N. c #5AB147",
"B. c #50B04C",
"V. c #54B24C",
"C. c #59B14B",
"Z. c #56B84C",
"A. c #40A150",
"S. c #42A351",
"D. c #45A652",
"F. c #42A757",
"G. c #44A655",
"H. c #43A452",
"J. c #4AA552",
"K. c #47AC51",
"L. c #44AB52",
"P. c #48AA50",
"I. c #4CAD52",
"U. c #47A35A",
"Y. c #45AB5A",
"T. c #4AAC5B",
"R. c #54AD52",
"E. c #50AB5A",
"W. c #47B152",
"Q. c #4CB453",
"!. c #46B359",
"~. c #4EB35B",
"^. c #4EBA5A",
"/. c #53B352",
"(. c #5BB450",
"). c #53BB51",
"_. c #5EBC52",
"`. c #51B859",
"'. c #62AB45",
"]. c #69AA43",
"[. c #68B448",
"{. c #6BB653",
/* pixels */
"A = F E V z V 6 6 = 2 * # = = * K | k g Z ' Z K 2 V Z Z $ 6 P 9 S v A.-.P.F k j #.2 % 8 &.~ J f.e y y E J $ G.o.L E J E k Z 1.( ",
"9 6 x.~ 6 h 8 8 = * $ 8 + 6 = 6 5 ~ & * 1.J % 8 Z 6 D 8 2 Z 8 7 V { B F.L.Z = x E 2 6 Z u V ~ t.9 J b r.~ Z A.Z L ( ~ ,.K s.8.` ",
"~ ~ J 8 9 P ,.K y J Z 6 V V k u 8 8 # k 8.* 8 9 E 6 Z = F &.y < V F k D.&.E k -.~ 8 8 ~ Z V K Z ' J b 8.&.$.V V P p.8 ~ d.k.8.~ ",
"8 E 8 u D U 9 K 8 8 6 8 ,.k 9 u 5.6 $ h W 8 J 6 u 6 6 $.A u = 6 $.x A { &.~ $.j.F Z F 8 V 9 6 9 e.J 8 L 1.8 @ { y.9 b Z Z A J y ",
"9 A 8 0.m Z y u 9 6 X A.h k 2 = #.V 8 = ~ @.^ 6 K 6 = #.,.6 9 F Z $.9 Z #.d.z.D x 8 U Z = 8 6 Z N | y Z ' * * U 8 k = P 9 = b y ",
"p :.$.' { J ' u 0 V = V @ { C # D Z @ * { r.~ y ~ Z 8 r.8.2 Z A :.{ 8 J 0.x.F h A 6 9 ~ Z { V D o.{ L k J 6 6 ~ 7 k k Z < V b h ",
":.Q.E ' ~ E 1.6 9 A Z 9 h A Z = F 6 O * $.g.~ = Z u.9 w.L 8 #.E E Z y W k.U D 6 8.8 6 8 J k D { E L J 6 = 8 8 8 G H h Z k Z { Z ",
"D /.( 8.d.^ J y 8 9 Z 8 V 6 2 L 7 g @ 8 d.(.~ y 8 U K K F 8 P r.~ K P A c.t.S 8 8 J = Z m @.Z | ~ z.8 X * h Z 6 G h Z F x k J $.",
"{ ( d.3.' ^ ^ ^ V 9 V 8 6 1 8 J 8 k :.8 8 y.r.y 9 t.L { V 2 6 x.A x.U &.c.i.,.8 9 Z A o.m $.6 $.y.u $ + # k 6 6 8 * 8 F J b #.x.",
"8.J Z ^ 8 y u ~ Z P C u 5 3 = J E Z 8.Z 8 9 ( 5 6 E k k * 6 8 u ~ ).8.:.[.'.P Z 9 8 J x { | L :.d.$ o + 6 * 6 u.6 @ 5 9 Z k D.z.",
"D Z J ^ 6 ~ 0.' J F L i 9 4 6 y 8 Z Z E 8 A 9 u 6 Z C = J 6 J A s.8.J N.{.x.6 A K J 8 | H.1.J t.k = 2 V 9 8 P y.V 8 u K k { %.x.",
"P J E y 4 y 1.^ r.8 5.d.u 2 J ' ~ b Z L V 5 7 6 8 h A V Z 8 Z c.A { E t.T.u.= 9 ~ 8 J A $.J u 9 * J k 8 Z P.A 8 8 8 9 ~ k Z G J.",
"| - e.J 4 % ` ^ v.s x.W '.6 P.&.8 m b l 6 6 8 A V @ ,.%.2 8 z.y.Z 1.o.8 V 5 8 i 9 k b 8 L P Z * E J = 8 E &.8 ~ | 8 ~ Z ,.Z 7 D ",
"k 8 L.3.^ J i u J p.Z :.].t.j = $ M m k Z k Z Z D Z F A 8 9 x.C J ^ -.6 6 @ u u k { Z * A { 6 P ~ E J 8.E ~ 8 A Z = ~ k ~ 6 7 = ",
"8 % ^ ^ ` ^ i d.J 6 J y.k.D k w.= n &.5.{ V L P { { { 6 8 8 A w Z D V V 6 V A A k Z L J F h = s.0.' ' 8.^ K A Z * J 8 = k F C 6 ",
"y 8 ' J ~ :.W K u 8 C u.&.j k I.,.#.E r.Z k A 9 :.L Z J Z A e A F h = l * V u.F h k I.P 8 k p s.e.n.d.^ r.( 9 5 D | Z k = V D x ",
"m b 9 u y K r.p u u 7 C 9 * * K { A ( 5.L 1.L.h I.A * z o.9 < X k L.c g o.{ I.F x x w.$ 8 Z d.u ^ 3.V.' | r.t 8 T.$.J k 6 k k V ",
"E | J i % 6 V.e p d.A V 9 k 2 w x 9 J M P ( L.&.L J h h D 6 8 $ Z 5.k Z D.Y./.I.k A.d.5 = U Z 8 y 1.e.E | Z.f.$.N Z L = 8 L F A ",
"= ^ = Z $ 9 g.d.u.E &.j.,.8 1 Z e.9 y b.( u 5.~ J A 6 6 V k P U 8 U { D m Y.Q.0.$.T.d.Z k K 9 6 E :.n.y n r.I.k * ,.8 6 8 P Z 8 ",
"| ~ t.h 6 f.t.d.~ L k./.A 9 Z 8 V.y J Z.5.~ ).1.Z Z G 4 * x 8 5 U w V k D ,.I.Z #.0.E D.V A P 6 y d.Q.b 8 8.' * + { 6 8 8 9 ~ Z ",
"8.$.d.8 6 c.t.K K K K 0.U u u 6 0.8 J d.F y d.C 8 8 A 6 Z k : 6 A 5 f { Z 7 D.8 P.U D.0.E V V u u E D.^ ' y E * 6 $ * V A t.L k ",
"k b s.V = c.y.d.u ^ ^ W 9 8.p P w.u u t.9 K K u y - K D V 2 1 8 ~ J V 8.V 6 Z Z F.-.K ~ /.k y J 7 $.o.' 1.= L * 9 * Z 6 U Z 9 Z ",
"D u.d.E V K u.~ J n k L Z l.p 8 Z y ~ ~ u u 9 Z u 8 J.k.5 6 6 V y 8 Z J 8 6 8 | = u p J W.2 ~ J 8 8 J ( Z * k 9 8 V U Z ~ ,.8 x.",
"%.V F 8.6 4 ~ 2 9 b k 8 ,.t.~ * 8 y A 8.{ u 9 8.~ L k x.5 6 2 J J = J - 8 9 Z k & E 5 ^ Y.2 7 K ~ = 8 0.6 $ $ 5 8 2 U Z W $.{ (.",
"5 u.| $.q , y 2 r 5.L 8 A U Z = J Z u B.-.9 u v.v.` u /.u u 9 P.^ y J y k u.u 6 k 1.n D.m $ @ 2 6 8 = 8 6 j 5 6 8 2 A 9 u A Z s.",
"Z A 8.&.a 3 $ p t.8.8.( 8.-.{ D J Z u &.W Z y u i v.C.E W i.8 H.= y 8.A k u y 6 = ' L.| # 2 = $ 4 5 b 2 % j d.* 6 k.9 u K K 9 Z ",
"D 8 y ~ A t.J f.u 8.8.#.Q.I.E 8 { 8.P E 6 P i u u u K F c.y.8 k J J ' E ~ y s 8 $ ^ ^.y * 8 Z k 4 t k = 8 F x.8.k w.u d.r.d.9 = ",
"Z 8 u 6 8 U y.r w P.u.#.W.Q.' J I.0.x.( ~ ( 9 p i y 6 6 Z A k = L Z ^ 3.i i i u = m n.u b 8 ' Z y 9 { J E 8 w.P.V | ~ M.g.d.* o ",
"9 Z 8 o 9 Z 5 G p D L ~ ( `.8.K.I.x./.K 8.A 7 9 i u y 6 A 8 k J Z 6 :.3.9 u J i K E I.8.k A I.| 8 8 ( ' ~ 8 n.| $.^ y t.'.W 6 : ",
"7 A = 3 9 V 8 L U V E Z ~ 8.W T.K x.).d.x V 8 9 Z Z K ~ K ~ 8 k k 8 ~ 8 Z A ' y i J { &.{ 8 E { 8 E W r.y ' u ' ' ^ 6 p 8 A 9 u ",
"A ~ u ~ Z Z L ( P J $.k ' u E A A d.(.Z.b w.Z 3 A 8 E r.^ ' 7 L D.L | ~ 9 ~ ~ y y y F b J 8 L Z 8 8.Q.d.~ ^ J u.' Z 7 7 k Z u Z.",
"u K Z J Z K J K U W 8 9 J K -.{ u.s R.` u n.Z u J 9 ( 9 y = 2 1.Z W ^ Z e 8.~ ~ y J Z = 9 u ,.%.C z.R.M.^ y P u.K 2 8 x k F j.c.",
"7 7 W x.p s ~ 8 W ~ 8 Z ( 8.M.4 x.E 5.u E 8.= Z J t d.3 2 : 2 - 7 Z L 8 8.z.~ ^ 8 Z | U y.Z K U A ( d.r.J y W t.( U D.{ 8 ~ K E ",
"2 A u.d.y.( 1.Z ~ ( 8 L z.E W 8 n.n J E { y 6 * 8 u u 2 * 5 2 8 D V L E z.y.i J 8 J ' Z A P F A P L 8.( { ~ ).y.x.&.= J u 5 K K ",
"6 t.8 u &.x.$.8 J y.9 J J 8 y y ~ 5.^ - E J J = ' J r , k I.4 = D 3 Z ' d.K i W 8 8 J V U G F U 8 #.E A 9 F M.I.:.6 8 P 9 2 8 e ",
"+.8 u 9 Z &.J J Z z.~ 8 4 8 8 J | J ' b.5.^ $.= 9 V 7 g.D.x.( 6 6 2 ~ s k.E M.$.8 9 ~ Z x.l.P.~ 8 | ~ 2 Z A 8.L i J ' J 9 3 8 a ",
"Z { A 5 9 A ( y 8 d.~ 2 9 8 8 ' 1.u v.Q.r.v.W J 2 P C C.= ~ u % 2 % u e A m 3.{ = = A %.D s Q.= k y.i * F r F u p | &.E 5 < u A ",
"D D 6 1.y.u ^ 4 6 W E 8 9 Z y E ~ 8.0.5.n.M.` y P A ,.x.u 3.~ % 2 % 5 9 F x b k x 7 Z R.0 9 1.m Z ' 8 +.#.8 I.x.s 5.$.8.3 2 9 o.",
"k Z 2 ' P 6 ' 6 J E = Z Z ( J K U A.' 0.3.v.y L P ,.W.M.x.6 9 e Z $ 3 8 k x k = K 9 x :., 5 $.D A y E n.n J M.Q.m.e.| 8 8 8 k L ",
"6 2 6 Z K 9 ,.6 5.^ ~ 6 5.d.' d.0.5.( K r.r.J A 9 I.Q.r.L V 5 A 9 3 k k J k { y a 8 $.k.6 C Z D { Z W n.J b.n.Q.^.L.8 6 { Z J E ",
"% $ 4 8 9 6 V A W e.9 E /.d.).` &.L.F 8 v.r.8.C 9 j.).' k A 6 P 3 7 z 8 - V ' ~ 4 = c.k 6 :.F V A P ' ' ^ ' 5.Q.^.n = 8 P $.$.K ",
"$ 4 6 y V 6 6 C V n.^ ~.C.u.' i $.w.F u J u 8.E d.f./.b.8 k.u { 9 +.= 8 8 Z E J % = -.& ~ ` o.h 9 8.Q.u i ' ' W.m.n 8 Z :.5.8 0 ",
"4 i 6 b Z o 9 < 9 K.e.c.i.p ~ K ' E Z u u ~ E J M.8.r.d.' /.~ w.A = J y V L b i = k k Z c.J V L A $.d.u s i L $.m.~ L E 8.$.5 5 ",
"y 9 V 6 7 6 K 2 2 W.V.f.s p E | ` r.8 x.W E i 9 B.J u e V K u 8 2 P ( 8 8 Z J b h = ' 8.G 6 A 9 9 8 8 i 9 a n ~ n.e { 1.$.$.9 5 ",
"5 4 D 1 2 ~ u 5 % v.s s ( d.' | /.x.V | L ^ y t u b 5 6 C 7 ^ 5 8 z.A < 3 E ( { Z 2 u.&.C G C 6 $.8 V u ~ y b E j.8 8 Z E b C J ",
"6 Z D 6 6 5 6 5 4 t > 5 L $.' n L.8.E * k y y 4 % u 3 K A 6 z.i E d.V 1 6 ( d.,.J 8 Z x.D R.6 8 k * Z 8 ' m - w.w.8 C 9 = Z { ' ",
"Z 8 ,.= = 8 9 9 % > 9 6 D m r.J @.W.E , | 8 6 5 8 W E @.6 e d.n.s i 9 9 * u.R.j.6 Z U.R.,.R.F o h = i.u 8 = b I.5.| Z 9 2 W ~ Z ",
"8 6 %.o.@ ~ u.~ > 2 6 k k k ` J L.!.d., 2 6 8 9 8 | W.$.2 p d.n.( t 3 Z 6 8./.A * U.T.z.z.u.6 h g p '.A * b - P H.E $.= Z K 9 k ",
"V A P k $ Z I.G 1 = # y = ' ` J B ~.` 5 o 8 V P % 6 8.Z 8 $.^ u 8 3 2 9 { x { -.v @.| z.u.p 8 * # ~ t.8 Z J u A x E @.8 { ( C 8 ",
"n.K 6 & 6 6 +.7 9 6 = = J B.#.b k _.6 % y 6 6 { o ~ { y ~ ( J 8 - 3 2 J J * @.E.&.n @.( u i.9 3 Z E f.8 A y u U j o.$.( W 3.9 $ ",
"v.K * k Z 8 * 7 A J = = d.Q.J $.J V.= - y 2 Z @.< -.Z ~ W 8.Z $.= 6 6 y Z k D.R.+.Z $.J Z u.5 G p x.U L 8 % 7 e b G.U E 0.E C y ",
"y F x Z K y x 7 w d.y 4 Z.L.n { E n.8 8   < { 6 l Z 8 d.z.I.k | - = E y F Z ,.0.F Z 3.k h K s 6 s 8 + u 6 6 3 e = #.F V P u 3 u.",
"J ' $.D 7 ' 8 8 y.N.d.y $.W.M x ^ Z.Z 2 ; 9 8 V H F { u V.{ Z E ^ Z k.Z Z ,.%.+.8 J J u k ~ p.8 u 9 6 4 9 w 3 5 v x D h { 9 3 u ",
"3.n.$.Z V E i 8.x.t.u * n.K.z k ' s 9 g Z 8 = G.6 A &.K E V ,.Z ^ L :.A A A ,.L 8 Z L J = E ( 8 y 9 u * 8 A 9 9 L.m V = { 8 7 K ",
"n.` 8.V 8 L 5.u e f.Z g ` $.g ~ 1.e t.j ~.4 k +.6 V K A E L { $.{ +.:.F u 8 Z k 8 P J J y 8.L J u 5 6 8 = 8 Z U &.F #.F J V Z /.",
"` $.' 8 6 L 8.p e 8 M & e I.* = D A f.@.0.y 2 A 8 Z A y.E $.~ D N V E u ~ A A.k C E 8 E ~ P.b { 8 4 5 ( A C K :.D u $.J 8 ,.o./.",
"K ^ J 6 = ~ 8 9 9 8 b 6 K I.6 g F 9 d.4 t - f 6 = F U A K U W S.S.A %.y.6 A Z V F P L ( v.{ k n - 8 e 5 9 t.%.k A 8 b L @.W F W ",
"8 ^ y % 4 = 6 7 7 u 9 2 D @.E h b | u % 4 ~ & 6 # t.A F Z A D.| $.L D.A 2 Z 8 o.%.,.y 8 u = Z n J J A 7 A 9 :.n ~ Z $.E F.y.y.E ",
"$.' = 8 Z 2 2 6 9 8 A 5 = #.J 6 b E 8 V 4 r e 8 9 p = Z 8 A F m m &.0.A F 5 { A.A 8 ~ y 9 { b J ' V 6 9 u.u.J Z 9 z.$.D #.z.U m ",
"~ J y 8 L @ @ # = h J 7 8 0.P 8 Z Z k Z 4 3 9 9 l.@ Z 8 9 G A x #.:.S.:.6 Z $.#.Z 8 L y P ,.J r.J * 2 K A u.k 6 V 8.h x A 0.$.L ",
"J J 4 y E h F 8 6 L z.5 Z U.Z { k j k h 6 Z 6 3 9 S 6 u G r 8 B L.,.Z D = { Z x 8 Z k V ~.#.J ' = = 6 Z 2 u.$.* V E V h C P 5.Z ",
"J ~ y | Z C { . $ 8.i.9 g x = b @.k k x V P V 7 C K 4 9 i.w 6 Y.T.V k x V A V h = = k +.U.Z u u V z.F 5 3 8 m j k L L X A 6 = @.",
"J J E k Z J.= * j V.8 F & J b { ^ E m = 8 K P J P u 6 6 A 1 6 ~.F D V V C ~ V k J = Z D = u.` y J z.J 8 8 8 h $.^ ~ ^ * 9 6 6 1.",
"6 J L D +.x A V k U $ b * | { P b b k 6 6 u ~ L u.8 = 6 A 1 V R.6 v x Z :.Z k h 0.Z Z k P g.J ~ d.d.` J 8 $ x | E E J { F g L ~ "
};
