/* XPM */
static char *_591145b50cb4373d18d8e9267a5e74aa2dpEo70chPzLorY[] = {
/* columns rows colors chars-per-pixel */
"64 64 227 2 ",
"   c #2C2C2D",
".  c #2D342C",
"X  c #32312E",
"o  c #2F2F30",
"O  c #302F30",
"+  c #343334",
"@  c #383736",
"#  c #3B3937",
"$  c #373738",
"%  c #383738",
"&  c #3A3A3B",
"*  c #294629",
"=  c #36592C",
"-  c #304630",
";  c #2E5832",
":  c #335B34",
">  c #375C37",
",  c #376433",
"<  c #3B6433",
"1  c #366E35",
"2  c #3B6C36",
"3  c #396338",
"4  c #366C38",
"5  c #3C6C39",
"6  c #357536",
"7  c #3C7334",
"8  c #3B7B35",
"9  c #3C753A",
"0  c #3C7C3A",
"q  c #43403E",
"w  c #417234",
"e  c #447B35",
"r  c #42743A",
"t  c #49763B",
"y  c #427C3B",
"u  c #3F3E40",
"i  c #413F40",
"p  c #3E7941",
"a  c #444343",
"s  c #494646",
"d  c #4B4846",
"f  c #494748",
"g  c #4D4B4B",
"h  c #514E4E",
"j  c #4B5946",
"k  c #53504F",
"l  c #515C4A",
"z  c #4E4E51",
"x  c #504F50",
"c  c #4F5554",
"v  c #555352",
"b  c #595656",
"n  c #565957",
"m  c #5A5957",
"M  c #555659",
"N  c #57595B",
"B  c #5C5B5B",
"V  c #615E5E",
"C  c #4C684C",
"Z  c #52604F",
"A  c #477945",
"S  c #447D45",
"D  c #437E4C",
"F  c #586656",
"G  c #557457",
"H  c #557C54",
"J  c #557559",
"K  c #58765A",
"L  c #567B5A",
"P  c #597A5B",
"I  c #62645E",
"U  c #5E5E61",
"Y  c #615F61",
"T  c #5E6064",
"R  c #557760",
"E  c #5B7463",
"W  c #5C7B63",
"Q  c #636264",
"!  c #696666",
"~  c #666962",
"^  c #696B66",
"/  c #64666A",
"(  c #66696D",
")  c #696A6D",
"_  c #67726A",
"`  c #6A7B6D",
"'  c #666C71",
"]  c #6B6D72",
"[  c #6C7175",
"{  c #627A70",
"}  c #6E747A",
"|  c #717275",
" . c #737B77",
".. c #73767C",
"X. c #76797E",
"o. c #787A7D",
"O. c #3D8533",
"+. c #3B8B34",
"@. c #3D823B",
"#. c #358C3A",
"$. c #3D8C3B",
"%. c #3C9335",
"&. c #3E9936",
"*. c #37913E",
"=. c #3D943C",
"-. c #3E9B3C",
";. c #3EA13E",
":. c #40812D",
">. c #428335",
",. c #438C33",
"<. c #498C34",
"1. c #43853C",
"2. c #448C3C",
"3. c #498B3C",
"4. c #439335",
"5. c #4B9433",
"6. c #439A36",
"7. c #4D9A34",
"8. c #43943C",
"9. c #4A953C",
"0. c #449B3D",
"q. c #4A9C3C",
"w. c #569A38",
"e. c #529D3E",
"r. c #45A23E",
"t. c #4BA23E",
"y. c #4BA53C",
"u. c #54A33C",
"i. c #5AA63B",
"p. c #3C8D43",
"a. c #3D8948",
"s. c #3C9543",
"d. c #3D9C43",
"f. c #399648",
"g. c #3D9C4A",
"h. c #379750",
"j. c #3EA143",
"k. c #3FA14C",
"l. c #3BAC4B",
"z. c #3FA651",
"x. c #448442",
"c. c #4A8444",
"v. c #448C44",
"b. c #498A45",
"n. c #46824A",
"m. c #4A844B",
"M. c #468B4B",
"N. c #4C8A4B",
"B. c #52854A",
"V. c #439442",
"C. c #4B9645",
"Z. c #439C43",
"A. c #4A9D42",
"S. c #45944A",
"D. c #4B954A",
"F. c #449D49",
"G. c #4B9C4B",
"H. c #529D42",
"J. c #56994B",
"K. c #488853",
"L. c #568454",
"P. c #588857",
"I. c #548E5E",
"U. c #489B53",
"Y. c #589859",
"T. c #619B5D",
"R. c #44A344",
"E. c #4BA343",
"W. c #45A944",
"Q. c #4CAA45",
"!. c #44A34B",
"~. c #4BA34A",
"^. c #45AA4B",
"/. c #4BAA4B",
"(. c #52A443",
"). c #53AA44",
"_. c #5CAD46",
"`. c #53A64C",
"'. c #53AB4A",
"]. c #4DB24B",
"[. c #52B14B",
"{. c #59B149",
"}. c #43A653",
"|. c #4AA453",
" X c #45AB52",
".X c #4CAC53",
"XX c #48AC5B",
"oX c #54A751",
"OX c #4EB755",
"+X c #51B252",
"@X c #55B950",
"#X c #63AB42",
"$X c #5E8662",
"%X c #5D9368",
"&X c #628565",
"*X c #688767",
"=X c #6B836D",
"-X c #668C6A",
";X c #63936E",
":X c #6A8476",
">X c #6E8C78",
",X c #728672",
"<X c #77887A",
"1X c #6A9177",
"2X c #7A977B",
"3X c #767B82",
"4X c #7A7D84",
"5X c #777D88",
"6X c #797E89",
"7X c #7D8186",
"8X c #7E828A",
"9X c #7E9B80",
"0X c #7F8690",
"qX c #818286",
"wX c #82858C",
"eX c #878B8B",
"rX c #85888E",
"tX c #879B8B",
"yX c #828790",
"uX c #848992",
"iX c #8A8D93",
"pX c #898E98",
"aX c #8F9394",
"sX c #8B9D92",
"dX c #8D9099",
"fX c #929699",
"gX c #959B9B",
/* pixels */
"A.=.R.~.s.g.V.0.v.v.M.W { :X:X:X:X7X;X9X9X9X1X9X;X;X1X;X-X-X;X-X;X%X%X%X%X%XI.I.%XN.K.P.Y.D.K.J.J.D.D.G.S.M.U.K.!.R.r.!.Z.0.^.E.",
"q.0.'.E.8.s.-.6.E R W ' } 3X3X3X5X5X0X0X0X8X0X0X8X8X5X3XX.X.3XX.4X5X3X} ..} [ { [ [ ` { _ _ E E E E E W R R R c R./.Q.~.Q.)./.Q.",
"R.E.R.0.q.E.~.E.' ' [ [ ' 3X} 3X3X3X3X3X3X3X3X3X3X} } ' ] ] ] ] ] ] ' ( ( ( / / / U Y / T U N U T T Y U N N U c ~.i.R.A.'.~./.Q.",
"A.E.0.t.F.~.q.E.W ( ' ' ' ' ' ' ] } } 3X3X{ ' 3X] ] ' ( / / / / / / / Q T / Q T T T Y Y T U N U T U U U U U M z (.q.d.R.Z.A.E.0.",
"q.E.R./.g.Z.r.u.I.E ' ' ' ' ' ' ] ] ] ] ] ] ] ( / Q Q Y Y U I Y T U U U U B N N N B N N M M M M U M M M c z z z A.-.d.E.q.-.-.R.",
"(.E.R./.R.Z./.q.[ ' } 3X5X3X3X5X3X3X3X3X3X3X....[ [ | | ] ] ] ] ) ] ) ) ) ] ) ] ( ( ) / / / / Q U U U B M U M v 8.d.s.Z.8.0.j.=.",
"~.OXE.Q.E.W.^.6.} [ 5X0X0X0X0X0XyXyX0XyX6XwXwX6X6X6XqX4X3X4X4X4X7X4X4X4X4X4X4X4X4X4X4X4X3X3X3X..[ ' ] ' ' ' ( / H.}.Z.Z.d.d.R.g.",
"F.+XQ.Q.).W.R.r.5X5X0XpX0X0X0X0XuXuXyX6XwX8X6XwXrXyXwX6XqX6XwXwX8XwX7X4X4X8XwX8X8XwX8XqX8X8XwXqX5X3X3X3X3X3X3X} e.s.Z.F.g.Z.Z.^.",
"!.Q.).^.Q.W.W.^.7X7X7X7X0X0X0XpXuXuX6X4X4X6X4X4X4X7X4X4X4X4X4X4X7X7X3Xo.4X4X4X4X4X4X4XqX3X4X6X4X7X5X8X8X7X5X3X3X8.=.0.R.R.d.^.'.",
"~.R.R.W.0.r.y.E.8X8X7XX.8X0X0XpXuXwX3XX.X.X.X...o.o.3Xo.o.X.X.o.3Xo...............o.............} [ 4X8X8X5X..[ 8.$.q.q.R.-.|.'.",
"R.F.E.W.6.E.].E.8X8X0X0X0XpX0XpXuX8X8XwX3X3Xo.o.o.3Xo.3X3Xo.3Xo.3Xo.o.o.X.X.o.X.o.3Xo.X.X.X...X.4X3X6X8X0X8X4X..8.0.t.(.d.Z.~.'.",
"R.R.R.R.6.0.^.W.0X8X0XrX0X0X0X0XyX6XwX8XY U Y Y Y Y Y U Y Y U Q Y Q Y Q Q Q Q Q Y Q Q Q Q Q Y ] uX8X8XuX0X8X8X8XZ.0.0.E.d.F.(.|.",
"R.;.^.R.;.&.Q.W.7X7X7XuX0X0XpX0XyXwXyXqXT n N m b n n n n n n m m m N N N F m n m m n M b v g / wX8XyXuXuXuXyXyXR.0.r.Z.~.Z.9.g.",
"d.0. X/.y.R.y.y.[ [ X.uX0X0XpXpXiXuXuXyX .L H H J J L H H H P H L P.L L K J P K J K G G G F U ..uXwXwXuXuXuXuXuXF.-.E.g.E.8.9.8.",
"-.&.W.^.Q.^.E.)._ ) [ uX0X8X0XpXuXuXuXiXtXD.~.A.F.~.!.9.Z.q.C.H.A.S.F.S.8.C.C.G.S.F.A.F.D.%X<XqXuXyXyXuXrXuXuXuX-.j.0.-.d.Z.A.8.",
"R.r.W.r.E.Q.(.Q.Q Q [ uX0X3X0XpXuXuXyXiXsXU.A.q.~.R.Z.j.Z.q.e.q.F.f.V.f.=.F.(.A.f.d..XR.Z.Y.aXuXiXuXyXwXwXuXrXuXF.!.Z.Z.-.F.F.d.",
"R.j.0.y.t.Q./.u.{ } X.uX0X4XrXuXuX0XuXdXsXoX Xs..XA.%.f.k.0.8.+.d. Xh.s.!.R..X~.g.F.^.&.0.Y.fXiXuXuXwXwXwXwXyXuXXXG.R.F.0.F.s.Z.",
"!.R.r.Q.&.8.{.q.7X7X7XuX0X7X0XuXrXrXwXdXsXoX X~.R.A.S.s.!.8.6.%.R.^.d.d.z.XX+X.Xd.!.`.5.-.T.fXdXiXyX8XqXwX8XwXyXF.F.R.-.=.A.E.0.",
"j.W.0.0.&.t._.'.8X7X8X8X7X7X0XrX0X8XuXdXsX`.^.E.R.Z.V.6.Z.-.E.E.0.E.~.F.g.XX+X/.j.XX).R.Z.oXgXgXiXrX6XwX7X4XqXyXs.E.9.=.0.~.Z.0.",
"j.Q.E.V.8.).u.(.8X7X7X7X7X7X7X8X8XwXuXdXsXoX@X^.Z.Z.(.4.=.g.Z.8.(.9.s.f.G.^..XZ././.R.|.r.;XgXgXiXuXqXrX7X7XwXwX#.!.0.-.9.q.A.Z.",
"^.^.).=.4._.`.e.7X7X7X7X7X3X4X7XwXwXuXdXtX~.'.q.0.0.A.6.Z.d.,.8.A.q.*.F.F.9.^.0..XE.}./.~.Y.sXgXyXyXqXwXwXwXwXwX0.=.&.=.E.E.Z.Z.",
"Z.d.{.Z.=.{.(.).7X7X7X7X7X..7X7XwXwXuXpX9X~.C.q.0.R.E.F.Z.4.<.8.E.Z.0.~.V.8.d.Z.}.|.E.E.+XF.sXgXwXrX7XqXwXwXqXqXq.$.Z.8.E.Z.7.Z.",
"F.~.'.E.Z.Q.(.E.7X7X7X8X8X4X7X7X8XwXiXiX2XN.b.S.Z.8.|.J.4.9.4.Z.r.0.j.R.-.8.0.R.-.q.u.A..X1.tXfXrXrXqXqXqXqX7XqX9.d.~.A.A.!.Z.'.",
"~.9.F.E.8.6.E.4.7X7X7X8X8X7X7X8X4X8XuXiX>XA c.K.N.S.a.G.9.8.8.d.R.0.R.;.0.q.R.;.*.E.t.W.a.> eXfXqXrXqXwXrXwX7X7X0.4.~.A.E.!.~.@X",
"7.(.^.R.w.7.r.5.7X7X7XqX8X8X8X8X4XwXuXuX:XA y N.K.N.m.I.N.b.x.K.S.-.E.r.d.(.t.0.d.^.j.h.; - o.iXqXrXwXwXwXwX4X4X0.4.Z.q.t.E.F._.",
"Z.Z.^.~.w.5.4.u.7X7X8X8XrX8X0XwXwXwXrXrX=Xp x.c.c.N.P.D N.c.D K.M.0.^.R.d.t.r.0.-.E.a.: . - <XiXqXrXwXrXrXqXqXqX8.~.u.t.t.E.6.0.",
"F.0.t.E.q.(.Q.).7X7XqXwXrXrX8XrXyXwXrXwX*Xv.b.3.c.N.m.n.L.H D p n.S.E.R.E.r.y.6.%.d.; * * : <XaXiXrXrXqXqXqXqXo.Z./.E.).Q.(.t.=.",
"Z.Z.t.6.0.(.(.w.7X7X8X8XwXwX0X0XrXwXwXqX*XC.9.9.C.v.c.n.m.n.D n.M.M.Q./.t.t.).t.-.p.; - ; 7 <XaXrXrXqXqXqX7X4X4Xd.R.r.)._.'.-.+.",
"9.Z.0.,.q.Z.9.E.7X7X8X0XwXwXrXrXwXqXqX8X*Xv.<.C.C.A.C.v.C.b.x.v.M.v.Q./.t.t.R.y.Q.0 > , 1 y <XiXrXyXwXqX7X7X7X4X!.W.r.).#XE.9.,.",
"7.A.=.5.q.d.9.E.7X7X8XrXrXwXwX0XwXqXqXqX&Xv.8.2.2.V.G.D.A.A.V.V.s.v.E.R.A.R.Q.E.t.@.4 0 0 t <XiXrXqXwXqX7XqXqX7XQ.R.6.t.d.E.6.t.",
"Z.Q.q.R.0.Z.R.Q.7X7X0X0XrXwXrXuXyX8XwX8X$XS.V.>.V.v.F.G.F.Z.3.F.U.S.R.R.q.E.y.R.r.@.6 6 @.e <XeXrXrXqXqX6XqXqXqX~.R.7.9.d.F.t.{.",
"E.t.R.E.Z.~.t.E.7X7X7XeX0X0XrXrXwXqXrX4X&XG.8.2.=.9.A.3.8.$.1.F.V.D.R.Z.e.E.Q.E.r.1.4 6 8 y ,XiXrXrXqXqXqXrXqXqXQ.4.9.d.F.G.'.'.",
"q.9.Q.'.(.u.r.R.8XqX6XyXwXyXyXyXwX8XwX7X&XC.$.$.$.4.q.>.:.O.>.$.2.p.E.0.^.'.t.Q.0.0 1 0 y @.,XiXrXeXqXwXrXrXrXqXJ.H.^.R.Z.E.Q.E.",
"4.A.(.).(.Q.^.0.7X8X6X8X8X8XyXyXwXwXrX4X$X2.$.$.p.8.5.8 +.5.+.%.p.1.~.R.'.`.y.r.0.8 7 0 8 S ,XeXwXrXrXrXyXyXwXwX'.`.s.W.t.5.Q.E.",
"8.u.0.t.E.+X!.Z.6XqX8XyX8XyX8XrXwX8XwX4X$XV.V.$.q.8.w.<.p.~.+.p.C.>.Z.Q.).E.Q.(.0.8 4 6 y y ,XeXqXrXrXrXrXrXwXwX~.0.0.R.6.9.0.w.",
"!.9.q.0.q.~.R.R.6X7X6X8XyX8XyXyXwX8XwX4X$XV.s.$.3.p.3.H.S.G.q.$.1.O.R.u.'.R.).^.0.e 4 8 y c.,XeXwXeXwXwXrXrXqXqXt.E.E.R.q.5.0.u.",
"F.!.9.0.q.A./.y.8X7X8X8XyX0X0XyXwX8XwXo.$XZ.8.s.>.8.v.J.$.8.9.+.O.+.6.e.A.!./.j.*.8 1 9 7 e ,XqXwXrXqXqXwXwX8X8Xu.j.~.W.7.,.t.E.",
"R.F.6.^.(.A.r.6.7X4X6X8X6XyX0XyXwX8XwXo.$X3.8.1.2.a.v.V.2.8.1.0 1.O.7.q.F.g.j.d.g.7 = , = w ` eXwXwXwX7XqXwXqX8X).^.^./.9.4.0.!.",
"j.8.4.^.E.6.Q.8.4X6X6X0X6XyXyXyXwX6X8X3XK 9 7 6 5 p S 0 S 4 7 r 9 8 7.Z.g.g.d.j.A.e ; , = = ` rXwXwXqXqXqX8XqX8X@X XR.=.q.0.d.E.",
"=.6.8.q.~.q.E.b.6X4X6X8X6X0X8X8X6X6XqXX.P 0 0 r 2 S x.0 0 6 w r r e d.s.0.d.R.r.i.O.1 9 < < ` rXqXqXqX7X6X8X7X7XOX X0.V.R.R.Z.R.",
"=.4.0.0.q.8.V.A.4X3X4X6X6X0XyX8X6X4X6X..P.C.C.1.1.C.~.2.$.v.>.1.w e f.0.-.Z.E.E.6.6 y 8 8 1.=XeX8XqX7X7XqX4X4X4XOXl.-.0.R.Q.^.A.",
"%.6.6.j.8.8.8.A.3X3X5X6X6X8X8X6XqX6X6X..L.3.A.s.9.e.~.F.2.C.2.v.>.a.-.6.0.F.W.R.&.8 4 6 @.2.:XqXqXqX4X4X4X4Xo.3X@Xl.9.F.~. X-.u.",
"6.y.0.j.9.+.q.,.3X..3X5X6X6X6X6X6X4X6X..L.2.V.V.C.A.A.9.8.G.V.F.1.0 r.0.Z.R.d.Q.-.8 ; > w r *XqX6X4X4Xo.4X3X..o.@Xy.R.R./.!.5.7.",
"r.q.V.6.7.8.E.4.3X} 3X5X5X6X6X6X4X3X4X] H @.8.1.S.2.2.>.@.3.2.1.8 0 E.R.0.0.j.R.f.$.0 3 w = ^ o.3XX...o.3XX.| | ].q.R.^.!.^.7.7.",
"6.9.!.4.=.r.t.7...} 3X3X5X4X5X5X3X3X3X] C 6 8 2 2 6 w 2 5 w 9 w 4 y A.,.4.E.(.R.R.&.u.v.4 > ~  ...| | o.o...) / `.8.0.Z.^.g.q.Z.",
"6.Z.F.8.6.q.7.q.] ] } 3X5X6X3X5X3X....] C 8 8 7 7 8 w r r r e e 5 1.C.<.8.).`.H.A.8.C.oXS.c.F | | ] ) | | ) I m /.0.A.q.-.Z.R.Q.",
"Z.9.~.s.%.R.q.q.' ' ' } 3X3X} ] ] ( ] / C 1.e t S c.x.b.r t B.B.t A B.B.m.J.T.T.B.L.I.P.L.H Z I Q Q V b m g a q ^.k.Z.q.4.~.E.Z.",
"0.0.~.!.$.E.E.A.z U Y ' / / / / / Y ( F j q j j j j l l l Z l b l l F I ^ ` ) ! ^ ^ ~ ~ V b k v v h a # + X     }.W.!.-.q.Q.q.d.",
"s.q.R.d.8.0..XH.+ & z N M U U M M z v z i a s s f s s s d d d h g g h V ! ! ! ! ! ! ! ! ! V m v a % X X X X   X Z.R.!.d.Z.Q.A.8.",
"[.Q.%.s.%.0.!.8.    o o & & u $ % O O $ & f f g h g h d g g h i s s h V Y ! ! ! ! ! ! ! ! Y Y b v s # O X X X X s.!.^.E.E./.e.=.",
"Q.).$.Z.Z.9.-.9.                  O O + i h h v v k b v b b b h g g h b V Y Y ! ! ! ! Y Y ! V V V v h d q X X @ ;. X~.E./.E.q.r.",
"y.Z.g.g.E.0.k.9.                O O + + i v v m b b v V b b v v v v b b V V V V ! V ! V V V V V b b b v k d q # -.}.Z.F.E.t.9.t.",
"R.^.^.S.9.W.9.-.                O O + + u h h b k b v v k k k k h k v v v v m V V V V V V V Y B V v b b v k k d g.g.F.d.Z.r.5.t.",
"/.].^.Z.V.E.W.~.            o   O O + % # s s d d d d d k k k h b v b v m b V V V V Y V V V V V V V m b b v k k  Xg.F.s.!.9.9.E.",
"].Q.^.Z.0.R.^.u.      o o o o o O @ + @ # f s g h k v h V b V v V b V V V b b V V V V V V B B Y b b b v b v v k ~.Z.^.Z.0.F.F.[.",
"Q.^.Q.0.0.R.^.i.    o o o o o o + @ @ & & g h k v v b V V b b V b V b V m b V V b V V V B V V Y b b b b v k v k F.E.!.A.R.~.!.+X",
"Q.W.R.0.0.r.Z.q.  o o o o o + + % % + % % i v v k b b b b V V b b v V v b V b b m m B B m B B B B m N M n v v v A.0.k.R.!.~.A.E.",
"9.W.0.&.&.0.=.7.o o o o + o + + + % + % & i h v v k b k k k k b b k k b k k b k n v v b M b v b M n v v v x z g E.R.!.R. X`.).E.",
"R.^.&.r.Z.4.4.8.  o o o $ o o + + O + + & i h h k k h h k k v v k k k k h h g h g h h h h g z z g g g g f a f a q.~.!.Z.!.`.~.j.",
"E.R.r.0.!.$.+.=.o o o o o o + o O O + + % u f g d g g g g i i f s i i s i i i q a i i i i u i & u u & u & u & & Z.E.F.g.A.'.!.!.",
"R.R.6.0.R.s.F.0.        o o o o O O + + + % # i # # # # # # & # % # % # # % # # % % & & $ $ & & & & & & & & & $ F.E.Z.s.9.R. Xd.",
"R.E.r.^.F.A.R.%.        o o o o O + O % + + % + @ @ % % % + + + % + + % # % % % % % % % $ $ $ $ & & & & & & $ $ -.R.Z.+.H.9.-.!.",
"R.Z.W.d.Z.~.-.#.            o + + O + + + + + + + % + + + + + O O + + + + + % % $ $ $ $ $ $ $ $ $ $ & $ $ $ $ + R.R.R.d.9.0.0.^.",
"6.A.R.!.!.k.0.#.          o o   O O O O + O + + + + + + + + + + + + + + + % % + $ % % $ $ $ & $ $ & $ $ $ $ + + ^.E.!.R.Z.s.Z.E."
};
