/* XPM */
static char *_1f9d387bff945a1d72720f2554da6122v4xTW4jGgDPOIl4[] = {
/* columns rows colors chars-per-pixel */
"64 64 222 2 ",
"   c #102610",
".  c #193A18",
"X  c #283517",
"o  c #343728",
"O  c #5E2F19",
"+  c #7C3822",
"@  c #1D421B",
"#  c #23491D",
"$  c #24501F",
"%  c #1F4823",
"&  c #224C21",
"*  c #2E4924",
"=  c #354B29",
"-  c #295726",
";  c #375429",
":  c #335E2B",
">  c #3C4E32",
",  c #3D5932",
"<  c #2C622B",
"1  c #2D6628",
"2  c #32622C",
"3  c #346C2C",
"4  c #38682A",
"5  c #34732C",
"6  c #38782D",
"7  c #2E6D30",
"8  c #3C6432",
"9  c #346D32",
"0  c #3A6C33",
"q  c #2F7730",
"w  c #377736",
"e  c #3B7235",
"r  c #347B36",
"t  c #3A7C32",
"y  c #357E3B",
"u  c #42401B",
"i  c #4D4D2C",
"p  c #585B29",
"a  c #465A3A",
"s  c #6F522B",
"d  c #46673A",
"f  c #447537",
"g  c #4E7730",
"h  c #43723C",
"j  c #717031",
"k  c #5C5C49",
"l  c #795943",
"z  c #4D6A43",
"x  c #526C44",
"c  c #526E48",
"v  c #5B6C4A",
"b  c #497946",
"n  c #57774A",
"m  c #5F7C51",
"M  c #6D6D4C",
"N  c #676751",
"B  c #6A6A54",
"V  c #697854",
"C  c #73775C",
"Z  c #7B7C62",
"A  c #747868",
"S  c #717E72",
"D  c #8F3A25",
"F  c #90512A",
"G  c #B3482F",
"H  c #9A6332",
"J  c #946831",
"K  c #A56432",
"L  c #B26C37",
"P  c #B56E38",
"I  c #A67237",
"U  c #B8743A",
"Y  c #C75136",
"T  c #C1773D",
"R  c #C4793D",
"E  c #99664C",
"W  c #887152",
"Q  c #3E8E2F",
"!  c #368537",
"~  c #3C8334",
"^  c #3C8A34",
"/  c #3B843B",
"(  c #368C3A",
")  c #3C8D3B",
"_  c #3D9235",
"`  c #3B9736",
"'  c #36923B",
"]  c #3C943C",
"[  c #3E9B3C",
"{  c #3EA33D",
"}  c #40882F",
"|  c #46962D",
" . c #428D34",
".. c #488835",
"X. c #428C3A",
"o. c #439435",
"O. c #4B9433",
"+. c #439B35",
"@. c #4C9A35",
"#. c #43953B",
"$. c #4A963B",
"%. c #449B3D",
"&. c #4B9C3C",
"*. c #569C38",
"=. c #529D3C",
"-. c #45A13E",
";. c #4BA23E",
":. c #4BA83F",
">. c #54A33D",
",. c #59A73E",
"<. c #3C8E40",
"1. c #388A46",
"2. c #369342",
"3. c #3C9642",
"4. c #379847",
"5. c #3D9C43",
"6. c #3D9C4A",
"7. c #3A9950",
"8. c #3EA244",
"9. c #3EA24B",
"0. c #3BAC4B",
"q. c #3EA452",
"w. c #3FA951",
"e. c #488B45",
"r. c #5B854C",
"t. c #439543",
"y. c #439C43",
"u. c #4A9D42",
"i. c #4A9A45",
"p. c #429D4A",
"a. c #529D41",
"s. c #698556",
"d. c #74865E",
"f. c #62935A",
"g. c #44A344",
"h. c #4BA344",
"j. c #45A944",
"k. c #4CAA46",
"l. c #44A34B",
"z. c #4AA44A",
"x. c #46AA4B",
"c. c #4CAB4B",
"v. c #52A443",
"b. c #5BA644",
"n. c #53AB44",
"m. c #5AAC43",
"M. c #51A64B",
"N. c #53AA4A",
"B. c #4FB548",
"V. c #4CB04C",
"C. c #52B24D",
"Z. c #58B249",
"A. c #43A553",
"S. c #45AC52",
"D. c #4CAC51",
"F. c #48A956",
"G. c #50AD57",
"H. c #4CB555",
"J. c #4EB45B",
"K. c #52B252",
"L. c #58B951",
"P. c #66B049",
"I. c #7C8864",
"U. c #7A9667",
"Y. c #748572",
"T. c #828668",
"R. c #8B8B6F",
"E. c #938B6C",
"W. c #85966C",
"Q. c #8A936E",
"!. c #8A8A76",
"~. c #8D9973",
"^. c #939475",
"/. c #939678",
"(. c #9B9D7C",
"). c #9AA27D",
"_. c #A0A07F",
"`. c #D78444",
"'. c #E48C48",
"]. c #EC914B",
"[. c #F4964E",
"{. c #F7984F",
"}. c #FC9B51",
"|. c #979786",
" X c #9A9C94",
".X c #9FA480",
"XX c #A4A483",
"oX c #A5A787",
"OX c #ACAD8B",
"+X c #B2A280",
"@X c #AEB18B",
"#X c #B1B38E",
"$X c #B0B88F",
"%X c #A8A897",
"&X c #B4B591",
"*X c #B5B992",
"=X c #B9BB95",
"-X c #BDBD99",
";X c #A6A6A3",
":X c #ADADAB",
">X c #B9B9AE",
",X c #B8B8B6",
"<X c #BEC199",
"1X c #C4C49E",
"2X c #C6C6A1",
"3X c #CBCBA4",
"4X c #CFD0A7",
"5X c #D3D4AB",
"6X c #D7D7AD",
"7X c #DDDDB2",
"8X c #E1E1B5",
"9X c #E6E6BA",
"0X c #EBEBBD",
"qX c #C7C7C7",
"wX c #D9D9D9",
"eX c #EEEEC0",
"rX c #F4F4C4",
"tX c #F7F8C8",
"yX c #FFFFCD",
"uX c #E5E5E6",
"iX c #ECECEC",
"pX c #F6F6F6",
/* pixels */
"u.] u.z.y.7.#.%.[ ]  .] ' %.] ] ;.l.5.2.g.k.&.#.5 0 c > @ ~ y.+.7.q.A.l.x.u.4.4.l.o._ y.z.g.y.m.=.-.-.k.-.] A.l.g.g.g.k.3.y.x.h.",
"&.%.V.h.#.2.] &.[ ] o.[ ' ] [ +.&.h.' ' x.%.5 8 v ~.@XZ > h 0 g 3.l.q.F.S.p.[ 9.l.O.+.u.u.%.h.v.+.g.g.c.;.p.A.y.u.k.h.z.k.n.k.B.",
"h.h.g.&.&.h.z.h.%.g.&.#.#.y.6.;.-.+.' 3.t.< d Q.3X0XrX4X@XT., 5 y.i.p.A.l.k.y.z.h.y.%.g.&.y.h.i.k.g.8.c.k.l.#.6.z.n.&.u.N.z.z.k.",
"y.h.%.-.p.h.&.h.-.%.[ %.z.3.&.;.c.#._ ( 0 v OX9XyXyXyXyXtX<XV 0 <.6.u.g.k.h.l.M.g.p.u.&.3.u.&.+.S.8.%.g.l.%.( z.v.&.5.g.y.u.g.&.",
"&.h.y.N.9.y.y.>.&.%.( A.3.3.o.%.S.y.) e C 1XrXyXyXyXyXyXyXeX*Xm 9 p.&.y.l.n.N.p.3.y.v.y.3.&.#.y.q.g.g.y.h.] ] z.y.[ 5.g.&.[ [ g.",
"v.h.l.k.g.y.k.&.&.%.] y.' l.i.' 3.y - x <XtXyXyXyXyXtXyXyXyX4XV e 6.+.p.c.N.i.3.z.o.&.g.g.p.] l.9.z.k.3.g.#.#.-.#.3.y.y.#.%.8.] ",
"z.K.j.k.h.j.k.+.&.&.y.&.3.i.#.! b Y.S A =XyXtX5XoXoXOX6XtXyX5XC w &.&.k.M.h.l.#.z.%.%.%.8.5.p.g.h.z.y.[ [ y.#.&.v.p.3.h.3.3.g.p.",
"p.K.k.k.k.j.g.g.%.&.i.+.3.#.~ h Y.:X,X%X|.9X3X!.|.:X;XoX2XtXrX#Xn ) h.v.M.v.t.y.-.-.[ y.9.l.p.g.h.c.%.^ ' %.y.#.a.3.y.g.p.p.8.z.",
"p.N.k.c.k.j.j.j.%.&.y.+.#...~ n ,XqXqX:X X-X!.;XwXiXiX,X%X8XyX5Xs.X.h.z.Z.b.z.y.=.y.g.l.q.8.t.z.N.-._ ( ] 3.+.#.t.#.+.g.u.8.l.N.",
"k.g.-.j.-.&.:.h.3.z.&.;.$.O.( b  XqX;XY.OX%X XwX,X:XiXiX>X2XtX&Xx t.N.k.P.P.i.y.i.%.g.6.z.g.g.z.n._ ^ ( #.] #.v.#.) &.u.g.5.A.N.",
"p.y.g.j.o.g.c.j.y.g.h.;.;.o.] / x W |.%X4X%X,XiX:X;XiXpX,XOX0XQ.8 y.g.Z.P.N.%.g.i.h.+.l.A.x.g.v.y.[ o.y.&.[ h.v.#.[ h.v.y.u.z.N.",
"g.g.z.j.+.+.x.j.c.%.D.N.>.o.%./ o N &X8X9X%X:XpXiXiXpXuX XOX0X(.8 3.k.v.G.v.` &.h.%.g.g.l.g.&.&.] -.3.y.g.z.u.y.%.&.+.h.6.y.a.F.",
"l.[ x.j.[ { :.:.k.,.h.^ ..t w = O s W |.7X-X|.qXuXiXuX;X|.5XrX).8 6.l.&.t.+.%.;.&.6.8.y.g.h.%.] g.5.5.%.g.z.y.h.8.&.-.y.z.y.$.p.",
"5.-.S.k.:.g.:.;.:.&.3 : u p u O + D + W 1XeX-X|. X;X%XoX3XyXrX).0 g.z.#.#.] v.;.[ g.y.] i.p.] u.k.k.g.k.k.h.+.u.g.%.h.9.g.#.#.%.",
"%.` x.j.V.j.;.;.t i s J P R R L F F + l 2XyXrX5X-X>X3X8XtXyXeX).e p.y.t.#.t.&.h.6.%.g.%./ < - $.k.k.k.k.k.h.g.&.3.8.%.] 5.y.i.#.",
"-.%.j.g.h.k.&.g p I `.[.}.}.}.{.].`.H W 6XyXyXyXyXtXyXyXyXyX0XW.2 2.3.4.) p.h.i.3.6.c.) e a ; ~ l.c.c.j.c.k.+.#.z.g.y.3.y.y.p.y.",
"l.8.&.:.%.h.4 s T ].{.{.[.[.[.].].'.L W 3XyXyXyXyXyXyXyXyXyX8XC - A.7.' l.l.D.z.6.4.! : I..Xv 3 ] #.&.g.l.B.&.[ F.l.g.y.%.3.y.p.",
"j.8.-.k.` %.X s H K K K K K K K K K F W 1XyXyXyXyXyXyXyXyXyX5Xv 7 x.6.p.A.F.G.D.2.y : C 3X7XI., n n b y 2.L.,.x.9.p.g.[ ] h.i.%.",
"8.j.%.&.` -.u F L L L L P P P U T R H M 5XyXyXyXyXyXyXyXyXyX*Xz ~ g.l.p.9.F.D.D.w ; V 3XrXrX2XOX=X1X/.d ! c.D.5.3.l.&.#.%.z.y.&.",
"g.g.h.t._ ,.g J U '.].[.{.{.}.{.[.`.F E.eXyXyXyXyXyXyXyXyXrX.Xf i.=.t.3.l.z.D.) - k =XtXyXyXyXyXyXyX&Xa 6 x.k.] ( z.+.3.%.&.-.6.",
"l.x.N.#.o.m.a...j J I P U R `.U L s s =XyXyXyXyXyXyXyXyXyX9XW.w &.&.) z.y.$.l.5 z .XrXyXyXyXyXyXyXyX*Xa 0 ~ %.] %.] ] ] >.h.u.3.",
"y.8.m.y.] Z.v.v.#.....g p s F D D + l 4XyXyXyXyXyXyXyXyXyX1Xn ! -.g.] z.#.X.<.b |.0XyXyXyXyXyXyXyXyX8XoX~.s.h ~ &.] y.%.u.u.-.i.",
"p.v.N.l.y.h.v.h.g.g.3.#.3 i D G Y Y E 2XyXyXyXyXyXyXyXyXrXXX8 ! 5 3 r 9 : : : v =X9XeXtXyXyXyXyXyXyXyXrX0X@Xd 6 %.y.u.i.y.l.&.c.",
"h.t.u.z.+.@.h.o.-.8.y.+.e.p D + D Y E 4XyXyXyXyXyXyXyXyX0X).z s.d.U.~.~.~.W.I.R.|..XXXoX&X5XtXyXyXyXyXyX0X/.; ~ &. .h.i.k.z.z.L.",
"&.v.j.l.*.| -.O.>.x.k.%.y.f p B E E _.rXyXyXyXyXyXyXyXyXtX5X-X3X7X9XeXeXrXeX8X7X5X2X-X/.B ^.eXyXyXyXyXyX0X~.; r #.o.&.i.;.h.u.N.",
"i.y.x.k.*.O.o.>.=.k.k.z.g.b Q.6X-X2X0XtXyXyXyXyXyXyXyXyXyXyXyXyXyXyXyXyXyXyXyXyXyXrX-XB B &XrXyXyXyXyXyXyX5XR.8 5 z.;.>.-.h.+.&.",
"p.%.-.h.&.v.h.b.h.z.c.z.1.c -XyXyXyXtXyXyXyXyXyXyXyXyXyXyXyXyXyXyXyXyXyXyXyXyXyXyXrX=XN C OX5XrXyXyXyXyXyXtX6XI.9 z.-.k.k.v.;.] ",
"y.&.-.#.h.h.v.*.&.c.M.p.7 N 7XyXyXyXyXyXyXyXyXyXyXyXyXyXyXyXyXyXyXyXyXyXyXyXyXyXyXtXeX2XXXA ^.0XyXyXyXyXyXrX=XV w p.:.n.Z.N.[ ^ ",
"&.y.y.^ &.-.&.=.=.u.u.#.: C eXyXyXyXyXyXyXyXyXyXyXyXyXyXyXyXyXyXyXyXyXyXyXyXyXyXyXyXyX5XA i !.tXyXyXyXyXyX7XC - 2.j.-.v.P.h.$.} ",
"$.u.#.O.&.p.#.g.h.3.j.X.: Z rXyXyXyXyXyXyXyXyXyXyXyXyXyXyXyXyXyXyXyXyXyXyXyXyXyXyXyXtX2Xk o T.eXyXyXrXeXtX9X^.> t g.o.>.[ &.&.;.",
"u.k.&.-.%.y.g.k.z.h.p.( : T.rXyXyXyXyXyXyXyXyXyXyXyXyXyXyXyXyXyXyXyXyXyXyXyXyXyXyXyXyXeX-XW B OXrXyXeX6XrXyX7XZ ; q @.%.p.p.:.Z.",
"-.h.h.g.y.h.h.h.h.h.y.^ 8 |.yXyXyXyXyXyXyXyXyXyXyXyXyXyXyXyXyXyXyXyXyXyXyXyXyXyXeXeXyXyXeX.Xk T.9XyXtXeXrXyXyX-Xv - y.3.y.i.M.N.",
"&.$.v.N.>.>.:.y.h.h.%.) n &XyXyXyXyXyXyXyXyXyXyXyXyXyXyXyXyXyXyXyXyXtXrXyXyXyXrX8X8XyXyX8X^.W 3XrXyXyXrX8XrXrX1XB . l.g.&.h.h.k.",
"o.u.h.N.N.h.l.%.h.h.%.3.r.=XyXyXyXyXyXyXyXyXyXyXyXyXyXyXyX8X2X0XyXyXeX8XyXyXyXyXrX0XyXyXrX&X_.0XyXyXyXrX9X8X*Xs.h : 3.g.-.&.h.h.",
"#.v.&.-.j.N.l.g.g.N.&.y z &XyXyXyXyXyXyXyXyXyXyXyXyXyXyXyX5X^.oX9XyXrXeXyXyX0X8XtXyXyXyX0XoXR.8XyXyXyXyXyX9XI.& / ^ %.j.+.@.&.=.",
"l.&.;.+.u.z.h.g.y.N.u.5 = ).yXyXyXyXyXyXyXyXyXyXyXyXyXyXyXrX-X^.XX5XtXyXyXyXeX9XrXyXtX5X!.B XX0XyXyXyXyXyXrXOX> 5 g.k.y.&.O.+.>.",
"y.l.y.+.&.u.k.&.#.h.h.6 * T.tXyXyXyXyXyXyXyXyXyXyXyXyXyXyXyXrX5X#XXXOX-X4X8X9X7X-XXX(.T.B R.8XyXyXyXyXyXyXyX7XI.5 g.l.j.&. .&.u.",
"p.u.#.z.v.u.g.+.o.N.j._ : V 9XyXyXyXyXyXyXyXyXyXyXyXyXyXyXyXyXyXeX4X#XoXoXXX!.R.!.A !._.2X7XyXyXrX0X9XyXyXyX9X~.f x.l.k.$.o.&.l.",
"y.%.o.k.z.+.k.#.u.j.%.%.w x <XyXyXyXyXyXyXyXyXyXyXyXyXyXyXyXyXyXyXyXrX7X6X1X_.oX3X3X7XeXyXyXyXyXtX7X7XyXyX5XQ.n #.S.l.%.&.%.5.g.",
"] #.+.y.h.&.h.#.S.j.h.#.t.e R.0XyXyXyXyXyXyXyXyXyXyXyXyXyXyXyXyXyXyXyXyXyXyX0XrXyXyXyXyXyXyXyXyXyXrXrXyXtX#Xa y D.S.%.3.g.y.h.g.",
"] o.%.+.i.$.t.y.h.x.&.l.K.X.r.=XyXyXyXyXyXyXyXyXyXyXyXyXyXyXyXyXyXyXyXyXyXyXyXyXyXyXyXyXyXyXyXtXyXyXtXrX9X@Xz 3.J.0.[ %.i.z.l.h.",
"_ +.+.8.#.#.o.i.y.V.g.J.Z.>.X.d.5XyXyXyXyXyXyXyXyXyXyXyXyXyXyXyXyXyXyXyXyXyXyXyXyXyXyXyXyXyXeX7XyX0X8X0X9X&Xn 7.H.j.%.y.k.S.%.>.",
"+.:.#.{ y.^ &. .&.x.V.N.b.>.#.h I.7XyXyXyXyXyXyXyXyXyXyXyXyXyXyXeXeXyXyXyXyXyXyXyXyXyXyXyXyXeXeXyXrX0XtXeXXXh t.B.h.g.l.k.l.| @.",
"-.&.3.&.$.#.h.o.+.S.L.m.>.>.h.( h T.6XyXyXyXyXyXyXyXyXyXyXyXyXyX9X8XrXrXyXyXyXyXyXyXyXyXyXyXyXyXyXyXyXyX7Xd.7 u.B.>.g.x.l.l.=.@.",
"+.@.p.o.o.-.&.@.` :.,.,.h.n.j.g.t.b I.<XrXyXyXyXyXyXyXrX7X0XyXyXtX9X-X1XyXyXyXyXyXyXyXyXyXyXyXyXyXyXyX0X(.h ( j.M.%.y.y.l.6.&.y.",
"#.y.p.#.#.;.+.=.+.+.;.| l.x.k.8.l.( e m XX8XyXyXyXyXyX0X6X0XyXyXyX9X!.A 8XyXyXyXyXyXyXyXyXyXyXyXyXrX5XR.d ! [ D.c.#.&.&.[ g.g.k.",
"y.+.p.y.] &.@.&.+.| &.+.p.9.B.g.x.q.%.g b U.<XeXyXyXyXyXtXtXrXrXyXeXZ i *XyXyXyXyXyXyXyXyXyXyXyX0X#XV , 5 ' 8.F.x.l.y.&.+.h.g.y.",
"y.#.z.l.' h.n.i.o.o.#.5.3.p.j.g.S.J.N.O.../ r.W.#X5X8XrXyXtX0X0XyXrX!.o XXyXyXyXyXyXyXyXtXeX4X&XW.d ; t ^ 8.{ z.x.l.x.] u.h.&.y.",
"t.&.k.6.#.%.c.a.O.[ ` -.3.k.k.j.q.J.k.@.^ %.) e.r.s.U.W./.XXOX&X3X6X!.o ).9X8X7X7X5X1X$XQ.V V b w ~ ..#.u.8.h.h.3.j.l.y.g.k.i.#.",
"C.h.] ' #.#.l.$.&.[ ` [ g.C.x.8.g.L.%.` -.+.t.g.Q ) X.2 * d x x n V a X v U.U.U.V m f.f.f 4 6 ..&.k.n.#.i.+.;.h.3.l.l.k.h.c.;._ ",
"k.h.) y.y.%.[ $.u.&.[ [ n.H.g.9.g.C.` -.%. .u.l.X.l.t.3 & t ! / 6 5 - . - ( e.e.q r 3.%.X.$.O.a.;.c.h.y.+.[ $.=.8.F.h.z.N.h.&.-.",
";.%.6.p.h.-.6.$.a.n.[ %.C.S.x.g.j.V.y.-.Q  .g.3.4.u.^ : - l.3.l.8.%./ @ - t.M.F.g.%.x.g.3.h.v.%.,.&.( >.%.#.O.>.5.A.u.3.i.;.O.h.",
":.x.l.p.$.k.%.%.N.m.C.-.x.w.w.6.j.B.h. .} i.%.y.p.i.t.# : 3.y.g.j.%.X.. # <.M.z.y.g.j.u.5.h.n.+.;.&.#.+.=.$.O.@.6.6.p.3.l.&.O.-.",
"V.V.l.y.t.l.h.c.n.v.-.] V.S.4.8.j.>.&.4.&.%.[ A.#.z.#.$ < y.z.l.j.p.X.& . X.p.h.%.y.g.y.[ l.N.+.-.;.-.] &.u.$.&.S.l.p.3.g.y.$.h.",
"V.k.x.%.&.y.k.;.*.m.-.' k.z.] g.x.=.v.4.J.` 3.l.#.%./ $ 7 u.l.p.g.p.t.& # ~ p.5.%.g.g.g.-.k.k.g.-.&.#.&.[ %.u.z.l.u.l.g.%.6.g.K.",
"V.j.k.%.+.l.x.>.&.&.9.3.&.D.] [ p.v.,.x.c.-.#.&.%.y.w - r j.h.p.A.p.y.- & #.l.3.i.g.&.k.g.c.8.8.+.+.@.v.y.u.h.h.p.h.l.u.y.z.z.K.",
"h.j.h.[ [ :.%.=.&.&.p.+.u.D.y.2.p.&.n.+.-.-.' #.+.i.3 # X.h.h.A.A.u.y.4 & t.g.t.i.z.i.k.k.g.6.8.8.%.=.@.&.v.k.6.i.&.9.h.l.h.h.z.",
"&.j.%.` _ %.] #.#.-.+.O.p.x.h.3.g.j.-.+.+.-.2.] ] u.1 % ) u.F.x.z.h.p.2 & #.[ p.z.z.h.-.;.[ g.8.g.h.&.$.&.&.z.8.h.5.l.g.F.z.v.k.",
"l.j.[ -.y.o.#.#.&.%.h.&.[ l.y.#.8.l.%.%.+.=.=.&.y.$.- & ] i.i.9.6.z.z.7 & X.g.A.u.%.h.-.&.l.5.8.k.y.+.u.v.v.g.g.&.k.l.l.z.N.h.p.",
"h.g.-.%.u.] _ ] #.3.g.+.%.c.h.y.%.g.4.g.&.O.&.O.=.7 @ # #.*.u.l.l.p./ & . ! z.l.y.%.g.%.h.z.g.c.y.' o.h.i.v.[ #.&.z.3.6.u.z.l.g.",
"g.g.+.-.z.3.p.[ o.g.M.&.y.A.p.g.8.2.3.3.#.&.) 5 : %   . ..=.u.7.1.< .     7 p.3.%.%.8.y.J.z.g.k.[ y.#.y. .v.j.] 3.h.y.3.i.i.x.8.",
"g.h.-.l.u.i.g.Q ] z.b.&.2.6.[ 9.9.6.y.6.3.i.X.t < # . # ..$.#.A.1.& . @ @ 3 3.y.%.] 6.l.A.%.:.g.%.k.i.+.O.-.9.4.y.h.p.^ a.#.3.l.",
"g.g.j.6.y.l.%.' 3.C.+.u.4.8.p.g.x.g.6.[ %.h.h.&.~ 1 1 1 t O.#.J.p.y 7 7 - 3 p.3.g.[ y.p.3.v.k.-.:.N.h.%.%.%.3.6.j.g.j.3.i.+.%.k.",
"#.u.g.g.z.q.&.y.3.h.] g.' g.g.h.-.8.8.#.%.;.h.y.M.+.] o.u.$.t.D.X.7.y.p.M.-.6.] c.y.y.6.h.m.g.:.N.n.c.y.[ #.6.z.j.k.l.u.y.2.g.g."
};
