/* XPM */
static char *_a34cd1a114a4f80bacfc4b69d7eb844Kvh5PvEaMibqYfSv[] = {
/* columns rows colors chars-per-pixel */
"64 38 131 2 ",
"   c None",
".  c #010101",
"X  c #080708",
"o  c #0C0C0C",
"O  c #131213",
"+  c #181718",
"@  c #1B1B1B",
"#  c #201F20",
"$  c #242424",
"%  c #272728",
"&  c #2B2A2B",
"*  c #323232",
"=  c #383738",
"-  c #3B3B3B",
";  c #444344",
":  c #4C4C4D",
">  c #504F50",
",  c #545354",
"<  c #5C5B5C",
"1  c #646464",
"2  c #686768",
"3  c #6C6B6C",
"4  c #706F70",
"5  c #747374",
"6  c #787778",
"7  c #7C7B7C",
"8  c #858485",
"9  c #888788",
"0  c #8B8A8B",
"q  c #939293",
"w  c #9D9C9D",
"e  c #9F9EA0",
"r  c #A09FA0",
"t  c #A2A1A2",
"y  c #A8A7A8",
"u  c #ABAAAB",
"i  c #B0AFB0",
"p  c #B4B2B4",
"a  c #BCBBBC",
"s  c #FE979E",
"d  c #FD989F",
"f  c #C4BEBF",
"g  c #FCA1A7",
"h  c #FCA7AE",
"j  c #FCABB2",
"k  c #FCB4BA",
"l  c #FAB9BE",
"z  c #C0BFC0",
"x  c #FDBFC5",
"c  c #C3C2C4",
"v  c #C8C7C8",
"b  c #CDCBCD",
"n  c #D5C6C8",
"m  c #D1CFD1",
"M  c #D5D4D5",
"N  c #D8D7D8",
"B  c #DDDBDD",
"V  c #FBC0C6",
"C  c #FCC5CA",
"Z  c #FDCACE",
"A  c #E9DCDE",
"S  c #FCD2D6",
"D  c #FBD6DA",
"F  c #FCDADE",
"G  c #E0DFE0",
"H  c #FDDDE1",
"J  c #E4E2E3",
"K  c #EEECEE",
"L  c #EEEDEE",
"P  c #EFEDEF",
"I  c #EFEEEF",
"U  c #ECEAEC",
"Y  c #FDE1E4",
"T  c #FCE3E6",
"R  c #FCE4E7",
"E  c #FCE6E9",
"W  c #FCE5E8",
"Q  c #F2E8EA",
"!  c #F7EAEC",
"~  c #FCE8EA",
"^  c #FCEAED",
"/  c #FCECEE",
"(  c #FDEDEF",
")  c #FFECEE",
"_  c #F0EFF0",
"`  c #F1EFF1",
"'  c #FDEEF0",
"]  c #F0F0F1",
"[  c #F1F0F1",
"{  c #F3F1F3",
"}  c #F3F2F3",
"|  c #F4F2F4",
" . c #F5F3F5",
".. c gray96",
"X. c #F7F5F7",
"o. c #F4F3F4",
"O. c #FFF3F5",
"+. c #FCF3F6",
"@. c #F8F6F7",
"#. c #FCF5F7",
"$. c #FDF6F7",
"%. c #FDF3F4",
"&. c #F8F6F8",
"*. c #F8F7F8",
"=. c #F9F7F9",
"-. c #FCF7F9",
";. c #FFF7F9",
":. c #F8F7F8",
">. c #F9F8F9",
",. c #F9F8FA",
"<. c #FAF8FA",
"1. c #FAF9FA",
"2. c #FBF9FB",
"3. c #FBFAFB",
"4. c #FDF8FA",
"5. c #FDF9FA",
"6. c #FEF9FB",
"7. c #FCFAFC",
"8. c #FCFBFC",
"9. c #FDFBFD",
"0. c #FDFCFD",
"q. c #FEFCFE",
"w. c #FFFCFE",
"e. c #FEFDFE",
"r. c #FEFDFF",
"t. c #FFFDFF",
"y. c #FFFEFE",
"u. c #FEFEFF",
"i. c #FFFEFF",
"p. c white",
"a. c #FFFDFF",
/* pixels */
"                                                        .                                                                       ",
"                                                      O < O                                                                     ",
"                                                    O 0 X.8 X                                                                   ",
"                                                  o q e.e.[ < .                                                                 ",
"                                                o 9 >.e.e.e.B = .                                                               ",
"                                          . O - 9 _ e.e.e.e.e.u o .                                                             ",
"                                      X * 7 z L e.e.e.e.e.e.e.=.y 1 * o .                                                       ",
"                                  X * q J e.e.e.e.e.e.e.e.e.e.e.e.>.U a 4 & .                                                   ",
"                              . # 8 G e.e.e.e.e.e.e.e.e.e.e.e.e.e.e.e.e.e.B q ; O .                                             ",
"                            X : v e.e.e.e.e.e.e.e.8.e.8.e.8.e.8.e.e.e.e.e.e.e.[ a 5 * O .                                       ",
"                          + 8 L e.e.e.e.e.e.e.e.e.e.e.e.e.e.e.e.e.e.e.e.e.e.e.e.e.e.L a 5 & X                                   ",
"      . O O X         . * p e.e.e.e.e.e.e.e.e.e.e.e.e.e.e.e.e.e.e.e.e.e.e.e.e.e.e.e.e.e.e.G 9 $ .                               ",
"    o 3 c c r : X   X : M e.e.e.8.e.8.e.e.8.e.8.8.e.8.e.8.e.8.e.e.e.8.e.8.e.8.e.e.e.e.8.e.e.e.B 3 + .             . O & X       ",
"  o 0 ! S -.e.[ 1 X < U e.e.e.e.e.e.e.e.e.e.e.e.e.e.e.e.e.e.e.e.e.e.e.e.e.e.e.e.e.e.e.e.e.e.e.e.8.c , O .     . & 4 z u o       ",
"  * L H j ^ F Z A : 7 e.e.e.e.e.e.e.e.e.8.e.8.e.e.8.8.e.8.e.e.8.8.e.8.e.8.e.8.e.e.e.e.8.e.e.8.e.e.e.| a 3 $ - q B e.e.c o       ",
". < -.( ( -.V j ( c , B e.e.e.e.e.e.e.e.e.e.e.e.e.e.e.e.e.e.e.e.e.e.e.e.e.e.e.e.e.e.e.e.e.e.e.e.e.e.e.e.8.B L e.e.e.e.z o       ",
". 7 Z k D x H $.e.e.c N e.e.e.e.e.e.>.v i L e.e.e.e.e.e.e.e.e.e.e.e.e.e.e.e.e.e.e.e.e.e.e.e.e.e.e.e.e.e.e.e.e.e.e.e.e.p X       ",
". 0 H S l s k 5.e.e.e.e.e.e.e.e.e.e.c @ X 8 e.e.e.e.e.e.e.e.e.e.e.e.e.e.e.e.e.e.e.e.e.e.e.e.e.e.e.e.e.e.e.e.e.e.e.e.e.9 .       ",
". 0 e.e.V s k 5.e.e.e.e.e.e.e.e.e.e.w . . 1 e.=. .e.e.e.e.e.e.e.e.e.e.e.e.e.e.e.e.e.e.e.e.e.e.e.e.e.e.e.e.e.e.e.e.e.X.: .       ",
". 7 e.e.~ Z ~ e.e.e.e.e.e.e.e.e.e.e.M : : z e.u 1 U [ p J e.e.e.e.8.e.8.e.e.e.e.8.e.e.e.e.e.e.e.e.e.e.e.e.e.e.e.e.e.a O         ",
". 4 e.e.e.e.e.e.e.e.e.e.e.e.e.e.e.e.e.=.X.e.e.a $ - - o 9 e.e.e.e.e.e.e.e.e.e.e.e.e.e.e.M 7 4 6 u J e.e.e.e.e.e.e.e.7 .         ",
"  , >.e.e.e.e.e.e.e.e.e.e.e.e.e.e.e.e.e.e.e.e.8.c 9 q 2 $ 5 7 a e.e.e.e.e.e.e.e.e.e.>.p * - < > & * i e.e.e.e.e.e.=.,           ",
"  + 1 w v U e.e.e.e.e.e.e.e.e.e.e.e.e.e.e.e.e.e.e.e.e.[ 9 : , p e.e.e.e.e.e.:.M J e.a $ 5 G O.>.B 5 $ M e.e.e.e.e.U *           ",
"    . . + * < 0 a J >.e.e.e.e.e.e.e.e.e.e.e.e.e.e.e.e.e.e.>.8.e.e.e.e.e.e.8.0 + < [ < , @.C V 8.O.Q 3 5 >.e.e.e.e.c O           ",
"              . o & : 7 u B [ e.e.e.e.e.e.e.e.e.e.e.e.e.e.e.e.e.e.e.e.e.e.L * . = B * w e.S F W h x J : p e.e.e.e.t .           ",
"                      . X $ ; 5 t m L e.e.e.e.e.e.e.e.e.e.e.e.e.e.e.e.e.e.=.9 ; 0 b $ f S R ( R S Y e.a 7  .e.e.e.G = .         ",
"                              . . @ = 1 q c U 8.e.e.e.e.e.e.e.e.e.e.e.e.e.e.8.=.e.z $ n j C j h W e.e.e._ >.e.e.e.e.c @         ",
"                                      . . O & , 9 a B X.e.e.e.e.e.e.8.e.e.8.8.e.e.a & B $.W g s S e.e.8.e.e.e.e.e.e.e.7 .       ",
"                                                . o $ : 6 u M [ e.e.e.e.e.e.e.e.e.c $ B e.$.k j W e.e.e.e.e.e.e.e.e.e.M $       ",
"                                                        . X @ - 3 w v U 8.e.e.e.e.b $ b e.e.%.O.e.e.e.e.e.e.e.e.e.e.e.e.5 .     ",
"                                                                . . + * < 9 u m U b $ a e.e.e.e.e.e.e.e.e.e.e.e.e.e.e.e.v @     ",
"                                                                          . X + * = o : c >.e.e.e.e.e.e.e.e.e.e.e.e.e.e.=., .   ",
"                                                                                  . . . @ : 7 u M [ e.e.e.e.e.e.e.e.e.e.e.u o   ",
"                                                                                            . X @ - 3 w b L e.e.e.e.e.e.e.J &   ",
"                                                                                                    . X @ = 7 p G 3.e.e.e.e.3 . ",
"                                                                                                            . o $ , 9 p N [ 0 . ",
"                                                                                                                    . o @ - * . ",
"                                                                                                                            . . "
};
