/* XPM */
static char *_c11ed9e8492444de7b4bfde28f9d03308MZLh7CULkwMggq[] = {
/* columns rows colors chars-per-pixel */
"64 64 219 2 ",
"   c #0B130C",
".  c #151815",
"X  c #162715",
"o  c #1A3417",
"O  c #1C3C1B",
"+  c #223B1D",
"@  c #25391E",
"#  c #242424",
"$  c #292E29",
"%  c #273526",
"&  c #233C23",
"*  c #293C26",
"=  c #2D3D2C",
"-  c #303B2D",
";  c #343834",
":  c #1E411C",
">  c #24451F",
",  c #1E4620",
"<  c #234322",
"1  c #254A24",
"2  c #294E25",
"3  c #2D432C",
"4  c #2D4B2C",
"5  c #31482E",
"6  c #245323",
"7  c #2A5524",
"8  c #255927",
"9  c #2D5D24",
"0  c #2D532B",
"q  c #2D5D2A",
"w  c #344432",
"e  c #344B34",
"r  c #394538",
"t  c #3E4B3D",
"y  c #2E5031",
"u  c #375435",
"i  c #2D642B",
"p  c #2D662A",
"a  c #376B2A",
"s  c #326B2C",
"d  c #2F732B",
"f  c #34742E",
"g  c #3D772E",
"h  c #2D6631",
"j  c #356D31",
"k  c #2B7232",
"l  c #337332",
"z  c #347C34",
"x  c #397A36",
"c  c #40443F",
"v  c #417D2C",
"b  c #444344",
"n  c #434D42",
"m  c #4B4B4B",
"M  c #485447",
"N  c #4C534B",
"B  c #504E50",
"V  c #555454",
"C  c #545B54",
"Z  c #595758",
"A  c #5B5B5B",
"S  c #586257",
"D  c #5D635D",
"F  c #605F60",
"G  c #636562",
"H  c #646C65",
"J  c #6B6B6B",
"K  c #6D746D",
"L  c #747473",
"P  c #757C75",
"I  c #777778",
"U  c #7B7C7B",
"Y  c #807E7F",
"T  c #3E8E2F",
"R  c #358234",
"E  c #3C8334",
"W  c #3B8C35",
"Q  c #3A853A",
"!  c #378B39",
"~  c #368C3B",
"^  c #3C8D3B",
"/  c #369337",
"(  c #3D9335",
")  c #3D9936",
"_  c #36923B",
"`  c #3C943C",
"'  c #3D9B3C",
"]  c #3EA33E",
"[  c #44892F",
"{  c #4A952E",
"}  c #418434",
"|  c #438D34",
" . c #4B8F35",
".. c #448E3B",
"X. c #439435",
"o. c #4B9434",
"O. c #439B35",
"+. c #4C9B35",
"@. c #43953B",
"#. c #4A963B",
"$. c #449B3D",
"%. c #4B9C3C",
"&. c #549A39",
"*. c #529D3C",
"=. c #45A13D",
"-. c #4AA23D",
";. c #4FAA3E",
":. c #54A33D",
">. c #59A53C",
",. c #53A93F",
"<. c #3B8C40",
"1. c #369442",
"2. c #3C9542",
"3. c #369945",
"4. c #3D9C43",
"5. c #399749",
"6. c #3D9C4A",
"7. c #3D9B50",
"8. c #3EA244",
"9. c #3EA24B",
"0. c #3CAA49",
"q. c #3EA452",
"w. c #429642",
"e. c #449C43",
"r. c #4A9D42",
"t. c #489A46",
"y. c #43964A",
"u. c #429E4A",
"i. c #529E42",
"p. c #509C48",
"a. c #44A344",
"s. c #4BA344",
"d. c #45A945",
"f. c #4CAA45",
"g. c #44A34B",
"h. c #4BA44A",
"j. c #45AA4B",
"k. c #4CAB4B",
"l. c #52A443",
"z. c #5AA342",
"x. c #53AA44",
"c. c #5AAB43",
"v. c #51A64B",
"b. c #52AB4A",
"n. c #5CAC4E",
"m. c #4EB044",
"M. c #4BB54B",
"N. c #4BB24D",
"B. c #52B145",
"V. c #53B24C",
"C. c #59B14B",
"Z. c #43A452",
"A. c #4BA552",
"S. c #45AC52",
"D. c #4BAD51",
"F. c #46A75A",
"G. c #49AC5A",
"H. c #54AC52",
"J. c #4CB552",
"K. c #49B556",
"L. c #4EB35B",
"P. c #53B352",
"I. c #56B852",
"U. c #62AA44",
"Y. c #7E817E",
"T. c #807F80",
"R. c #838483",
"E. c #868985",
"W. c #8C8D8C",
"Q. c #8E928E",
"!. c #928F90",
"~. c #949394",
"^. c #969896",
"/. c #9B9B9B",
"(. c #A59B9C",
"). c #9F9FA0",
"_. c #A4A3A4",
"`. c #A9A8A7",
"'. c #ABABAB",
"]. c #B1ADAE",
"[. c #AFB1AF",
"{. c #B5B4B5",
"}. c #B8B7B8",
"|. c #BDBCBD",
" X c #FCA4AA",
".X c #FCAFB4",
"XX c #FCB6BB",
"oX c #C1BFC0",
"OX c #FCBFC4",
"+X c #C4C3C4",
"@X c #CBCACB",
"#X c #D5C7C9",
"$X c #D0CFD0",
"%X c #D3D2D3",
"&X c #D8D7D8",
"*X c #DCDBDC",
"=X c #E3C8CB",
"-X c #FBC2C7",
";X c #FCC6CB",
":X c #FCC9CE",
">X c #FCCDD2",
",X c #FBD2D6",
"<X c #FDD6DA",
"1X c #FCDBDE",
"2X c #E0DEE0",
"3X c #F2DDE0",
"4X c #FCDEE2",
"5X c #E4E3E4",
"6X c #E8E7E8",
"7X c #ECEBEC",
"8X c #FDE3E6",
"9X c #FCE7E9",
"0X c #F3E9EB",
"qX c #FCEAEC",
"wX c #F7EFF1",
"eX c #F4F4F4",
"rX c #FDF2F4",
"tX c #F9F7F8",
"yX c #FFFDFF",
/* pixels */
"r.` e.h.e.5.w.$.) ` ..` ~ $.' ( -.j.3.1.a.f.=.s.X.e.e.e.W @.s.#.u.7.Z.j.S.a.2.3.h.( ( $.f.s.e.c.*.=.=.d.a.( Z.j.a.g.d.s.4.e.j.s.",
"%.$.V.s.@.2.` %.4.` X.) _ ` ` $.+.s._ ` f.e.X.@.e.` x > @ q ` #.u.g.9.F.D.2.2.g.h.X.$.e.e.e.s.:.%.8.a.k.s.e.Z.2.e.x.s.h.s.c.k.m.",
"s.s.a.$.r.a.h.s.$.=.a.$.w.e.4.-.=.@./ 2.f.` $.$.e.l 1 m H 3 d | w.r.u.Z.j.s.a.h.s.$.$.s.%.e.s.e.f.a.8.f.h.u.2.e.s.x.r.r.x.v.f.d.",
"e.s.$.-.t.s.r.s.=.$.@.$.h.` s.-.j.$.( 4.h.e.a.$.} 1 C +X*XU < l 2.6.r.g.h.s.h.h.g.t.a.$.2.r.#.%.j.a.$.g.j.$.^ g.l.%.4.a.e.t.s.e.",
"+.r.=.k.9.e.$.:.%.w.~ 7.2.2.X.$.j.w.w.' r.g.a.E 0 Z +XyXyX$XG 1 Q u.%.e.j.x.v.u.2.e.s.e.2.$.@.e.q.g.=.e.d.` ` l.a.' 4.g.$.$.' e.",
"l.h.g.f.a.e.f.%.&.$.' e.~ g.t._ 8.e.^ ^ ` ^ l y C oXyXyXyXeX}.n q ^ @.e.k.b.r.2.h.X.*.a.a.e.2.g.Z.a.s.4.a.@.@.s.@.2.e.e.@.$.8.2.",
"h.J.s.f.s.d.j.O.%.%.e.%.2.t.$.@.g...k s u u N U |.tXyXyXyXyX7XQ.- y i g ..t.u.@.h.$.$.$.a.4.u.g.a.a.e.@.4.$.e.$.*.Z.2.e.e.2.a.8.",
"g.H.f.k.x.d.a.a.$.%.%.$.2.$.X.a.E h 0 n L '.*XeXyXyXyXyXyXyXyX6X[.U V r e i x ^ $.e.' e.9.g.e.8.s.b.$.^ ` ` e.X.i.2.a.t.6.e.a.g.",
"g.x.f.f.f.d.d.d.$.e.e.$.@.| X.x 0 t U +XeXyXyXyXyXyXyXyXyXyXyXyXyXtX6X}.R.m 3 0 a Q @.6.q.u.$.h.x.-.W ~ _ 2.@.#.w.@.#.a.a.4.Z.b.",
"h.a.e.d.$.=.-.s.4.s.$.-.o.v p e G }.7XyXyXyXyXyXyXyXyXyXyXyXyXyXyXyXyXyXeX&X/.D r 4 q k <.` e.v.x.( W ~ $.` @.s.@.^ $.%.a.' A.b.",
"a.e.a.d.@.$.D.s.e.t.h.%.g 2 n ~.5XyXyXyXyXyXyXyXyXyXyXyXyXyXyXyXyXyXyXyXyXyXyX6XoXW.Z r e h x %.4.' ( e.$.$.s.l.` $.-.l.e.e.s.b.",
"a.e.@.z f f Q ` f.@.g.x y D |.eXyXyXyXyXyXyXyXyXyXyXyXyXyXyXyXyXyXyXyXyXyXyXyXyXyXtX6X|.E.N 3 q z $.e.$.e.k.r.e.$.$...@.2.e.l.A.",
"g.R h w n t e q E  .j r U &XyXyXyXyXyXyXyXyXyXyXyXyXyXyXyXyXyXyXyXyXyXyXyXyXyXyXyXyXyXyXtX%XQ.n 3 h ! ` a.h.e.$.^ f q , h w.#.g.",
"R 2 m ).#X@X_.D & 2 t ~.7XyXyXyXyXyXyXyXyXyXyXyXyXyXyXyXyXyXyXyXyXyXyXyXyXyXyXyXyXyXtXyXyXyXeX@XP r 0 l ^ @.E s 0 w t ; O ^ w.` ",
"p n |.4X<XrXrX#XG $ ~.eXyXyXyXyXyXyXyXyXyXyXyXyXyXyXyXyXyXyXyXyXyXyXyXyXyXyXyXyXyXyXyXyXyXyXyXyX7X{.H r 4 0 5 r H `.@XY.O ^ r.#.",
"0 L 0X<X>X9X>X>XoXJ /.tXyXyXyXyXyXyXyXyXyXyXyXyXyXyXyXyXyXyXyXyXyXyXyXyXyXyXyXyXyXyXyXyXyXyXyXyXyXyX7X}.U V T.oX7XyX7XW.O 2.t.2.",
"e ~.9X8X9X4X:X>X0X{.W.6XyXyXyXyXyXyXtXwX7XtXyXyXyXyXyXyXyXyXyXyXyXyXyXyXyXyXyXyXyXyXyXyXyXyXyXyXyXyXyXyXeX7XeXyXyXyX7XE.O ` 2.e.",
"e (.:X-X:XOX4XtXyXeX&X7XyXyXyXyXyXtX$X!.).5XyXyXyXyXyXyXyXyXyXyXyXyXyXyXyXyXyXyXyXyXyXyXyXyXyXyXyXyXyXyXyXyXyXyXyXyX5XU : w.r.e.",
"r ].8X<X.X X:XyXyXyXyXyXyXyXyXyXyX7XR.  # `.yXyXtXyXyXtXyXyXyXyXyXyXyXyXyXyXyXyXyXyXyXyXyXyXyXyXyXyXyXyXyXyXyXyXyXyX&XS 6 r.e.$.",
"e '.yXqXOX.X>XyXyXyXyXyXyXyXyXyXyX6XU . ; _.eX*X2XtXtXwXtXyXyXyXyXyXyXyXyXyXyXyXyXyXyXyXyXyXyXyXyXyXyXyXyXyXyXyXyXtX[.w s %.s.e.",
"u _.yXtX9X4XrXyXyXyXyXyXyXyXyXyXyXeX|.U ~.2X6X~.L oX].).*XyXyXyXyXyXyXyXyXyXyXyXyXyXyXtX7X2X*X2X7XtXyXtXyXyXyXyXyX6XY.O ..s.a.e.",
"e ^.yXyXyXyXyXyXyXyXyXyXyXyXyXyXyXyXyXtXtXyX7X_.b m b ; W.*X*XeXyXyXyXyXyXyXyXyXyXyXeX*X/.J J L ~.@XwXyXyXyXyXyXyX%XC 6 r.e.#.t.",
"y J *X6XeXtXyXyXyXyXyXyXyXyXyXyXyXyXyXyXyXyXyX7X+X'._.L m J E.%XyXyXyXyXyXyXtXeXtXtX@XL b J T.L m Z '.tXyXyXyXyXyXoXt s e.g.$.V.",
"q % D E._.+X&X6XeXtXyXyXyXyXyXyXyXyXyXyXyXyXyXyXyXyXyX*X/.U ^.*XyXyXyXyXyXeX@X'.%X5XT.m ].3XqXeX@XI F %XyXyXyXyXeX`.= x f.g.h.C.",
"E a 8 , @ c S Y./.}.%X5X7XtXyXyXyXyXyXyXyXyXyXyXyXyXyXyXyXtXyXyXyXyXyXyXyX%XV # Y |.Z ~.9X:X<XqX4X#XU ~.7XyXyXyX7XE.o } s.s.e.b.",
"r.e.s.g.[ a 6 > > 5 C K ~.{.@X2X7XeXyXyXyXyXyXyXyXyXyXyXyXyXyXyXyXyXyXyXyX}.; # I _.B oX9X4X4X<XXX,X+XU +XyXyXyX6XY.@ E s.%.#.e.",
"u.$.-.a.r.:.s.>...Q f 6 < 3 M H E.'.+X*X6XeXtXyXyXyXyXyXyXyXyXyXyXyXyXyXyX2X~.R.].^.V #X>X4X1X<X4XqXeX|.}.tXyXyXtXoXM 7 e.x.-.' ",
"e.%.-.$.%.s.v.&.+.k.l.a.g.2.f 6 1 3 t D Y._.oX&X5XeXtXyXyXyXyXyXyXyXyXyXyXyXyXtX0X!.Z =X;X-X XOXqXyXyXtXeXyXyXyXyX7X).3 g x.( W ",
"@.t.$.W %.a.#.i.:.u.e.s.x.L.j.D.g.@.Q i 1 O w C P ^.}.%X2X7XeXtXtXyXyXyXyXyXyXyX7XW.A 5XrX<X X.X8XyXyXyXyXyXyXyXyXyX*XJ 1 @.#.| ",
"#.r.@.o.%.e.$.a.r.e.d.e.s.k.s.L.s.b.I.x.2.Q f 9 1 : 3 N K Q.'.@X*X7XeXyXyXyXyXyX7X~.Z 5XyX9X;X:XrXyXyXyXyXyXyXyXyXyXeX'.- a O.-.",
"s.-.a.a.$.e.a.f.h.e.g.4.f.s.s.t.r.c.P.C.8.h.e.o.$.W Q l 6 : * n H E._.+X&X5X7XeX7X^.V *XyXyXtXtXyXyXyXyXyXyXyXyXyXyXyX*XG < @.C.",
"-.s.a.-.e.s.r.s.s.s.e.%.d.-.h.a.:.l.V.b.-.J.e.s.e.-.x.%.=.W z l 8 < < r S P Q.`.{.U b {.eXyXyXyXyXyXyXyXyXyXyXyXyXyXyXeX).% x n.",
"%.@.f.x.l.:.s.$.s.-.$.e.k.s.b.$.k.s.j.s.d.k.` =.e.$.x.o.X.[ X.' o.2.^ f i 1 O @ = # . C '.$X5X7XtXyXyXyXyXyXyXyXyXyXyXyX@XC 6 e.",
"o.r.l.b.x.-.j.e.s.f.$.g.x.f.s.O.k.j.d.d.e.a.$.` $.;.%.o.) -.X.$.u.@.r.d.v.l.@.R p 6 : o * N K Q.'.@X*X7XeXtXyXyXyXyXyXyX7XE.+ } ",
"@.s.$.-.f.H.u.a.a.b.%.a.a.$.=.=.s.j.d.] h.d.a.' f.d.*.+.4.k.O.4.t. .a.f.x.r.l.f.$.$.$.Q E j 1 < * M H E.'.@X5XwXtXyXyXyXtX{.e 9 ",
"g.#.%.%.e.s.d.=.e.v.=.%.) %.$.a.8.=.f.d.j.d.g.' %.w.o.c.A.b.;.$.@.) s.l.b.d.b.d.@.r.a.$.v.n.h.@.R k 9 : < n P ~.|.%X5X7XtX$XC + ",
"t.g.e.#.%.r.f.=.@.l.s.X.#.=.$.f.N.s.m.M.N.f.f.a.X.s.t.n.` f.-.( X.) O.:.r.9.k.a.2.$.s.h.g.:.D.' 4.l.-.^ w.a 6 > 5 C P ^.[.'.C X ",
"e.g.X.j.l.r.d.X.@.x.d.$.r.e.=.d.s.j.k.S.N.B.f.=.s.e.h.b.;.d.=.` O.X.%.%.t.6.9.4.3.#.a.H.+.-.j.9.e.s.$.j.k.@.D.p.} k 8 < @ 3 o   ",
"4.$.X.f.s.$.f.@.a.d.4.$.e.f.=.f.r.Z.s.b.k.f.-.a.s.h.D.m.H.@.%.*.e.X.+.e.e.6.3.] s.*.4.h.o.+.g.a.s.$.s.N.0.a.f.J.M.J.e.! f 6 o X ",
"` X.$.e.s.%.h.@.k.d.s.@.k.x.f.f.b.j.f.s.k.k.a.s.@.D.J.k.a.w.+.r.$.{ 4.2.e.4.a.=.>.e.g.v.#.#.u.u.g.e.f.N.a.N.M.J.J.S.$.@.a.e.a.$.",
"` X.O.$.%.#.w.t.s.f.$.g.P.c.P.m.h.j.r.%.N.b.h.e.%.b.P.d.' s.$.r.o.#.5.%.' e.s.-.O.` H.a.$.s.s.y.e.r.f.f.d.f.j.J.L.0.) e.s.f.g.s.",
"( O.$.] @.@.o.t.e.N.d.L.C.l.f.f.h.D.e.-.a.s.k.s.f.c.P.N.$.v.r.a.r.g.) $.$.e.j.a.) $.k._ a.k.Z.<.s.k.J.$.;.f.d.D.J.d.$.e.h.Z.' &.",
"O.-.$.8.e.W %.W %.S.M.b.z.:.s.s.d.h.a.-.-.r.s.a.b.f.k.f.s.C.s.k.r.` d.$.e.a.4.f.) 4.4.e.c.a.t.e.%.h.x.;.;.,.d.h.I.-.a.h.f.g.{ :.",
"=.%.e.@.o.@.s.X.O.S.C.c.:.,.s.d.f.b.' k.s.d.f.%.V.d.-.*.e.s.s.$.O.s.s.a.e.$.a.8.4.` f.k.z...e.%.%.$.$.f.+.:.9.a.M.-.a.j.g.g.+.+.",
"O.#.6.o.X.-.%.+.) ;.;.,.s.f.j.d.P.V.' h.d.d.=.+.s.] +.#.w.#.f.=.$.k.r.| @.s.f.u.e.X.x.h.t.*.#.$.h.' w.%.s.s.] h.b.@.e.e.j.8.t.r.",
"O.e.g.@.$.%.+.%.O.O.+.o.h.h.f.8.Z.j.s.` e.=.=.O.( -.o.s.i.@.x.-.s.x.$.| @.x.c.h.s.' r.v.u.v.w.$.3.` w.=.f.8.] k.A.$.%.$.' 4.a.f.",
"e.$.h.2.( a.%.%.O.{ %.@.u.6.k.d.j.S.s.o.d.$.$.+.$.s.d.j.@.*.x.V.;.;.%.%.( l.H.v.@.w.F.H.A.H.e.W 2.` z.-.$.3.] G.k.8.e.%.@.s.a.e.",
"w.@.h.g.^ s.s.r.X.O.@.4.2.8.f.d.S.K.f.o.X.$.@.%.e.d.S.g.X.:.x.k.f.&.o.e.` k.P.r.` F.G.b.b.l.#.2.3.,.U.i.X.8.] d.Z.h.g.) r.s.%.e.",
"e.%.a.4.( e.D.i.o.' / =.4.f.f.d.Z.L.f.+.( $.w.h.( @.k.e.' d.d.=.$.o.X.%.a.6.g.h.q.j.a.b.l.:.$.~ _ s.l.%.t.8.-.s.5.d.9.' a.f.t.@.",
"V.s.@.1.@.@.g.#.+.' ' ' a.V.h.8.e.I.$.) =.$.@.d.W s.g.=.s.h.a.%.=.o.( a.e.` g.G.h.9.9.k.-.z.%.&.$.j.,.$.r.$.-.l.3.g.g.f.v.k.%.( ",
"m.f.^ 4.e.$.' #.r.e.' ) c.J.8.g.d.b.` ] $.| t.g.W h.e.s.s.b.e.h.) ' @.-.a.4.A.H.h.4.j.e.e.l.o.i.,.k.s.r.$.) #.*.4.D.s.h.b.s.%.=.",
"-.e.6.e.l.$.6.#.i.x.$.$.V.Z.0.a.d.M.$.-.T | 8.@.5.t.e.,.b.S.4.g.8.' s.a.e.u.v.D.a.$.f.8.2.s.:.$.:.-.~ -.O.@.o.:.4.Z.t.e.r.s.o.-.",
"d.d.g.5.%.s.$.$.f.c.c.=.j.0.q.9.d.M.a.( E %.$.w.u.t.h.%.V.8.e.d.d.e.v.%.e.h.h.h.e.a.d.e.4.s.x.$.%.%.@.O.*.%.o.+.g.5.u.2.g.$.o.%.",
"k.k.h.e.e.h.s.k.b.l.-.` J.j.3.8.f.:.%.2.-.$.' Z.@.g.h.s.d.e.h.a.d.e.h.s.r.s.t.g.$.r.s.e.' d.x.$.-.%.-.` $.r.#.%.Z.Z.e.2.a.e.o.s.",
"N.k.j.e.$.e.f.%.&.c.=.1.f.j.3.s.g.*.l.3.L.) 4.h.@.$.s.s.a.e.g.u.u.u.h.s.-.%.u.4.@.a.a.a.$.f.s.d.-.+.@.$.' $.%.h.h.a.j.e.$.u.g.P.",
"f.f.f.$.O.g.k.,.+.a.9.1.*.D.` @.u.l.z.j.k.=.X.t.$.t.%.l.h.h.s.u.q.e.h.s.e.r.g.' t.s.a.s.d.D.4.0.$.O.%.-.r.t.s.s.u.s.g.e.r.h.g.P.",
"s.d.s.) O.d.$.%.%.$.8.$.r.D.$.1.e.r.,.) -.=.1.@.@.r.h.r.s.s.s.F.Z.r.h.l.@.r.a.w.t.s.a.f.f.a.4.9.] $.:.%.%.l.s.4.e.$.9.d.g.s.p.s.",
"e.d.=.) X.$.@.@.#.s.$.o.u.j.s.2.9.d.-.O.O.=.1.( / l.r.e.e.r.A.j.g.s.A.r.@.e.' u.h.h.r.=.s.' e.8.a.r.%.X.t.%.h.d.s.e.g.s.Z.v.f.h.",
"s.d.' %.e.( @.@.%.$.$.+.` j.e.@.8.h.e.e.O.&.:.=.%.l.$.e.$.s.t.9.6.h.k.e.e.$.a.Z.%.$.a.=.%.u.4.d.f.e.@.%.l.l.e.a.%.b.g.u.h.b.s.g.",
"s.a.=.$.g.^ ( ` @.4.a.#.e.k.s.e.' e.4.e.%.o.#.+.c.^ e.$.$.i.r.4.j.h.A.h.@.e.h.g.t.e.a.$.s.h.a.k.a._ @.l.%.l.3.@.e.s.2.6.r.h.g.a.",
"s.a.%.' g.2.e.$.@.a.b.o.t.F.4.a.4.3.2.2.@.e.` +.t.y.%.-.i.*.t.Z.F.g.4.u.e.e.e.5.e.$.4.e.L.j.s.d.` ' @.e.X.l.d.` 2.s.e.2.w.r.g.a.",
"a.a.=.d.e.r.g.T ( h.c.%.1.4.' 9.g.3.e.6.e.r.w.#.%.r.O.#.z.o.$.S.G.w.e.u.e.t.2.e.) ' e.Z.Z.a.-.-.e.b.r.#.o.=.9.3.e.s.e.Q i.%.2.g.",
"a.a.d.4.t.j.' ` 2.P.e.a.3.a.4.d.h.d.6.' ` l.s.r.h.%.$.) r. .` L.h.u.w.2.r.r.e.2.e.$.e.u.2.l.k.=.-.b.s.$.$.$.2.9.d.d.d.w.t.$.' f.",
"@.e.h.u.t.q.%.e.2.s.( 4.^ d.u.s.] 8.8.@.$.-.s.a.p.$.' $.r.#.@.H.| q.u.t.s.s.3.2.D.a.e.2.s.c.a.f.x.f.f.a.$.` 6.g.h.s.d.e.e.1.e.d."
};
