/* XPM */
static char *_d4bfd84f9034636e4980a482af70194k2BZz3nmzCbZ2fmR[] = {
/* columns rows colors chars-per-pixel */
"64 64 180 2 ",
"   c #5B4D40",
".  c #5E5043",
"X  c #625345",
"o  c #645649",
"O  c #66594B",
"+  c #6A5C4D",
"@  c #665C50",
"#  c #6B5E51",
"$  c #6D604F",
"%  c #71624F",
"&  c #6E6253",
"*  c #6F6559",
"=  c #726555",
"-  c #796753",
";  c #766956",
":  c #7B6B56",
">  c #726659",
",  c #766A5B",
"<  c #7B6D5C",
"1  c #7D715E",
"2  c #766D61",
"3  c #7A6E61",
"4  c #777063",
"5  c #7D7263",
"6  c #7D756B",
"7  c #7E786C",
"8  c #7D7670",
"9  c #777873",
"0  c #7E7973",
"q  c #7C7B79",
"w  c #816E56",
"e  c #806F5C",
"r  c #83735D",
"t  c #8B755C",
"y  c #87795F",
"u  c #8B795D",
"i  c #90765A",
"p  c #937C5E",
"a  c #826E63",
"s  c #837564",
"d  c #897663",
"f  c #857966",
"g  c #8B7B64",
"h  c #82766A",
"j  c #897668",
"k  c #847A6B",
"l  c #8B7D6C",
"z  c #927D63",
"x  c #9B7D61",
"c  c #927D6C",
"v  c #997F68",
"b  c #847C73",
"n  c #8B7E72",
"m  c #827E79",
"M  c #8E7F78",
"N  c #937F71",
"B  c #9D845F",
"V  c #A1805D",
"C  c #8D816E",
"Z  c #948166",
"A  c #9C8465",
"S  c #93836C",
"D  c #9B856C",
"F  c #96886E",
"G  c #9C896C",
"H  c #868077",
"J  c #8C8273",
"K  c #86817C",
"L  c #8B847B",
"P  c #8D887D",
"I  c #938573",
"U  c #9A8673",
"Y  c #958976",
"T  c #9A8A73",
"R  c #9A8975",
"E  c #9B8B74",
"W  c #998A77",
"Q  c #9B8A76",
"!  c #9E8E77",
"~  c #9B8A74",
"^  c #92867B",
"/  c #998779",
"(  c #908979",
")  c #94887A",
"_  c #968A7A",
"`  c #92887C",
"'  c #958A7A",
"]  c #9B8A78",
"[  c #988B7B",
"{  c #9C8D7A",
"}  c #9F8E7A",
"|  c #998B7E",
" . c #9E8F7C",
".. c #9B8D7B",
"X. c #9F907B",
"o. c #9F907D",
"O. c #9E917E",
"+. c #9E907C",
"@. c #A48964",
"#. c #A88A66",
"$. c #A1866A",
"%. c #A38A6C",
"&. c #A68F6F",
"*. c #A38B6C",
"=. c #A88E6B",
"-. c #A98D6A",
";. c #AE9167",
":. c #A6906F",
">. c #AB916E",
",. c #A9906C",
"<. c #B4956D",
"1. c #B7986A",
"2. c #A08A73",
"3. c #A08C73",
"4. c #A28D73",
"5. c #A88F70",
"6. c #A18F7B",
"7. c #A49175",
"8. c #AF9677",
"9. c #AA9476",
"0. c #A59179",
"q. c #A0917C",
"w. c #A1927F",
"e. c #A2937E",
"r. c #A1957F",
"t. c #A3937C",
"y. c #AA957B",
"u. c #A6987D",
"i. c #AB997C",
"p. c #B19776",
"a. c #B19B7B",
"s. c #817F80",
"d. c #838281",
"f. c #888785",
"g. c #8A8683",
"h. c #8C8A85",
"j. c #898788",
"k. c #8C8B8A",
"l. c #968C80",
"z. c #948C82",
"x. c #9F8F80",
"c. c #9B8E82",
"v. c #928E89",
"b. c #998F89",
"n. c #959085",
"m. c #9D9181",
"M. c #9C9082",
"N. c #9D9283",
"B. c #95928A",
"V. c #9C948B",
"C. c #9F988E",
"Z. c #999591",
"A. c #A18F81",
"S. c #A29680",
"D. c #A49582",
"F. c #A69583",
"G. c #A69686",
"H. c #A39483",
"J. c #A99784",
"K. c #A69885",
"L. c #AC9B87",
"P. c #AF9D87",
"I. c #AA9A83",
"U. c #A19388",
"Y. c #A39589",
"T. c #A9978B",
"R. c #A5998A",
"E. c #A89B88",
"W. c #AC9B89",
"Q. c #AE9D89",
"!. c #AB9C8B",
"~. c #B09C81",
"^. c #AB9D90",
"/. c #AB9E92",
"(. c #AFA08B",
"). c #B3A284",
"_. c #B1A38A",
"`. c #ADA193",
"'. c #B2A392",
"]. c #B6A998",
/* pixels */
"= 1 s , h & , < , 1 5 + + , k S 1 5 l g 5 s = & = $ r r g l d s f l s , k C o.e.I C h C M.h C P f 6 C r.r.e.Y h 2 4 , A s < l f ",
"3 5 7.S o.h l f E J.t.f m.W.L.Q.~.k s 5 5 6.W J r , r ; S I S g : s n l l A D S 7 > 5 f C f g h * C o.| c.D.I.k h h S 3.f 2.M.I ",
"5 l A g e.h l s { U.| I /.G.] S 6.5 ; s s E E r + ; < = k u r : 1 n ` T 2.%.-.D.] h J J 0 5 G Y , 6 7 f 3 k s < = , S S S p.7.e.",
"2 ; s ; h < < 3 5 J 3 + > o   X = w # u g u p z ; a g , C C r s g l P Y T A >.8.F , H J l S X.W 0 f.K H & ; h 3 o & 5 ; & 1 l 5 ",
"A , d Z d l r n k = > + < s ; & ; u w z S z B p = d c , l M s s 5 & < k D p p z 5 & = f Z S J 3 ; 7 H 5 & b 2 > l c c v < 2 5 3 ",
"A g @.@.x U s Q ] H ` 5 E I.7.0.S 1 5 5 r g y < + ; j > < j < < < < ; h g l r Y G Z f , s u < 3 > n K k 4 f.b b c.N N U F z k L ",
"D u G =.D 2.u N Y ` | d 3.4.Y W *.k l s z 8.y Z %.z u < = - ; s S r h @.U D g t.5.z A Z g Z u k 6 J k H 5 h 5 J U.A.H.6.] u d n ",
"3., S 7.3.$.r c.c.z.L s { i.*.Y z , e < < s 1 z s s , s f C g C l j l s 5 h & 3 g Z Z s : p t r y C h 5 > l s h T.T.I.K./ l l d ",
"h ; * s s g * 5 h h 5 * , > > 5 h , : d f 1 A *.s l k c 4.<.2.%.5.2.9.I C 9.E n 5 h * < l h , , , 1 1 < < s & @ j | l 2 & > > ; ",
"= s > < * h < * 6 > 5 < d < k J k f g y ; , y x d z S D 2.;.D F %.v D.' 2.>.W./.m.l l D.Q.t.c S 1 h , f h | ( k 2 ; l I ` h ; ; ",
"C h h < 2 h s ; g 1 , 1 1 , 7 1 s g Z u : p - = : + 1 g g U E { / l...3 ' 9.C./.Y 6 Y r.I S l h , C 7 g Z N.H.R.H.Y T.y._.R.[ 4 ",
"Y k k h 2 > < < h h l S I I Y 5 , f , 5 , y : r d u , > 2 6 , = < 3 # ; h > 6 f , , = 5 5 k T J u F k g 1 I J.G.e.5 R.A.u.D.K.C ",
"Y j 5 7 7 7 l.z.I | U I Y I y.] f @.d Z Z f u A f , r 5 m J p d s j s b b > , 2 H 5 < f h 5 > ; 1 g , s , C Q.Q.] 5 D.H.N.n.6./ ",
"n 3 s 6 L h n.' / I n n S l 6.C ; ,.F g f s u i u 5 z k n z d d d c s h m h k h h h h g k l < , 4 f s 5 & 1 < C h 3 G.R.N./ { J ",
"5 g 6 > 3 < C 3 > j E ' l.I W l 5 s < , & , p w w < r = < g 3 < a a a N g.h j d k 1 h n l s = = s s g = * r # & Y 4 M ' I l I > ",
"s D g k l h H.5 J e.E ] z.I T t.I.o.4 l 5 k n , = h c 6 3 5 s ; < e > n b > 2 3 5 1 < < s > = < r 5 h = h h k l !.k n U.A.t.J.] ",
"s g d I S C R.Y (.T F S I l S I G I.f l f J C f g 6.6.B.z.h n f c S s s 7 K 2 3 b ( n 3 k ` J f d f f s k 7 H k l.k C y.t.e.t.0.",
"g A y J +.C K.C K.! T I c I U I T I * h 4 h h , < k T I l 3 k ; , g a 6 , 2 > 3 n 2 * = 4 k s 4 , , , < C k k h ] l k i.$.%.5.I.",
"5 A ; k 5 f (.C C R.W F Y ..I U Y I | r.f , k f 5 > r : & s g & r I L L h 5 5 5 n < 5 I Y Y n.' S 4 5 r , f k 3 C 1 5 i.6.%.E I ",
"1 k g f & f , 1 , , & 6 ' m.U.| ' T.Y.P.Y h h f S g r h k I S s h B.v.` 8 6 0 h 0 7 Q C.R...h.+.t.E f f , , = 5 6 1 r 5 ; k 3 @ ",
"F t.t.! k t.; Y O.C 1 & C +.I J J ` _ S 5 7 5 g S n h f k f 0 6 k P ` l 5 k l 0 m 6 J M.v.c.D.M.D.I.C 1 = = 3 , 1 ; n g 1 6.I < ",
"7.X.+.t.f O.C O.L.r.Z I 0.E S C l * 5 ( 5 k f k k n s f 6 f b 8 7 P ' C 7 k g b K 5 6 Y +.N.Y Y C 5 ; & f , C 5 h s n n I { { 5 ",
"r.t.u.W 1 J.7 X.t.E g 3.3.T C S g 4 W W.E _ K H ` ; , , 5 b b 5 3 / ` ` C 5 r k L , = 3 7 f 1 6 f 1 : 5 C h f s h h I l Y E 3.J ",
"u.7.G g 6 r.5 u.9.S Z :.7.r.r.7.f 5 I.r.S n.n.V.n., : 5 7 b 5 > > 3 2 6 4 ; 4 & > < h h 0 4 ; C C s f 1 g 5 C f 7 k f h J D.7.f ",
"l l d , & g & T 5.g < 5 s C ! S < * k k J H J J 7 * 4 I h 6 5 z.c.I , k I c.' 4 * f J +.h , C f < ; < ; h , 3 ; 1 1 5 < > C f * ",
"T e.E l S F s I I s , 2 f l Y f 1 , y s , 5 5 6 J 5 z.B.J b k z.H.z.b / e.y.r.n C N.V.N.C Y '.o.5 h g l l k g y 5 5 * l h h X.l ",
"9.R...E 3.D G *.$.E e.8.<.-.I.7.D.{ u A n h b b m 0 j.P b h h ' E L g.E ] 0.4.l Y W.Y.E.J _ H.W C 5 l z g g 5 s 1 _ Y D.+.5 I.Y ",
"H.].m.n 0.3.D $.T 9.E T 1.-.1.9.Y 6.s s 6 h m 7 b 5 M K q 5 h I l.2.S S E { 7.{ C J.K.'.Y k M.Y S 1 5 t.k k ] l ] K.{ I.+.4 T C ",
"5 l ; # , l l U U C , = e s S s > < r < , 7 8 5 6 , h b 0 3 3 h C T < 5 h H.f h 5 Y '.K.k h e.S 4 S P.K.l a U c C ..' h 4 ; , , ",
"o & # ; # & . O , s z e = r u ; w d j 5 , b 8 7 b L 5 h > s a > > ; ; > & > ; ; ; s I , & & l s - , = = $ - $ = ; ; f ; O + + o ",
"# , ; ; , ; + + < d z < , < r 1 Z l t 5 8 m h 2 z.Z.z.k 6 n s 3 5 s S g 5 < k l s , 1 > ; 5 5 3 % & O : ; - $ ; > = l l f % + + ",
"$ # = = + % + $ e : < ; c f 5 G #.z h K d.m m 5 h.k.K b b b h 6 b c J 5 k h 6 n C 5 5 , > b l : = z , , e : < 5 > < I k f = O + ",
"l , < 5 r = , g l g y 6 0 f u A p v b S L f.h 4 j.k.m b 0 d.0 b 0 n n h h f g h 5 , 1 , 6 J Y =.s S u Z D l %.E S 2.] { 5 3 1 , ",
", f k l l s g g k , & f H 6 g B i A s D o.j.b b v.g.b H 7 n j 7 m h 3 s ; , l h 5 6 k 6 6 H L :.f l B f 5 0 ..Y c N / 6.k 7 h s ",
"< s h J g s g Z C 5 5 k 0 7 k #.S A s k Y g.b H k.k.h 0 l A h 5 n e , g f 5 z J 7 H C 5 6 q 9 J h J h 7 5 6 / K / L / | b b b h ",
"J j b g g k l l l 5 k J H 1 , D | S & j U L 2 3 P b , h f l 5 5 , < g g s 5 J h 7 b 0 6 k 7 9 J s H b H h 6 L l.l.k.v.z.b n l J ",
"f 3 5 5 1 , , g f = = 5 k > = , < s , , s 5 3 5 3 6 ; > = , h s = O ; e + , g h 5 , 7 1 5 k 7 h , J , 5 4 ; 5 6 L L L n 3 < s 2 ",
"= l l g 5 1 : 1 l 5 s , M b n 4 s u c 7 s ( / U n s.n h a e J c s = d ; e l k , , , C & > > h n , , , s J l h M n 3 & r < < , d ",
"c N N M l j g s g k r 5 J m 0 b b l j 6 g M.' U ^ L c J g s k s k r l s l c l s J P | f f 4 L z.J L B.z.e.I.t.A...] s c c e e d ",
"s n n l j h n z g v 5 5 L m m j M n h s 6 ] %.Q c b g h d g s h l s c j l l h 3 ! I P ( I ] U.] l z.E $.A U c 2./ / c.1 > = ; < ",
", > j z j , s e < u < ; s b 6 > l l s * 3 l D y.F g c l < ; s s s ; s = , l a 4 S T P J m.R.W./ J E 5.>.U c c I ( L b.7 b 5 l l ",
"j s l g s , a 2 < = = = 3 > 5 , s s e # % r , a g s g s ; : ; O 5 3 , 5 b h s 5 E T P J l.U.F.x.k m.u.U U N U N / z.( 5 l j h l ",
", r p z d s ^ L n j a < K h g.s M m l t r x i - u < S g C C d = k g j j n C b h B.L Y J ' l F.R.s { ).2.U c.5./ z.v.l.h l k C S ",
"# # s j 3 2 3 3 , , a ; h 3 h h 5 h d e $ w p r i r x z d s < = > = h > < , 4 5 s 5 4 ; , & l n > 5 6.6...^ k n b M b 2 h 5 3 e ",
"> e c l g.M b , 2 # 2 X = # , # o = < s < r d 1 1 = h s ( , O # O o s f + O < b 5 , < * y , < , , s 1 , g ; # < = * 4 0 n f = u ",
"# e d d l b m 3 4 > * b I n h > ] I < 6.a.,.;.i.H.l S F J.G.k k 5 s h s = + 3 b 5 s < = d , = 1 f z z < g u 5 L h n g.s.J g e t ",
"a e j 3 h 4 M g.( h | b.b.b.z.s A.6.S 7.&.A A @.8.] E G 0.9.E l s J ] ] 3 < s , k 5 > 5 < k 1 & l s s ; < s 5 h > 5 7 0 b , ; s ",
"N 4.J.n 8 b h.h.l k b.^ z.I Y 5 U y.I &.$.A G G #.7.T S %.0.I f 5 j 5 5 Y J.!.' Y.' l D.J Q.!.h T.H.E I h h.E D f = J g., , D g ",
"< D z.L 6 5 6 2 8 4 ..W.H.F v l 7.0.C 5.x *.9.9.=.G T S 8.E.k ; 4 , s Y D.{ z.m.M.N.h M.M.H.K.I A.U.U D J Y 5.7.3.C N.h.b z $.s ",
"$.-.b.Z.h b 4 5 0 > s k ' T.6.k t.t.J t.@.7.a.a.:.f I s C C C f s 5 c H.F.U.H.m.N.+.I Y Y G.W.T 2.] I 3.S E M.V.H.S t.P H c D S ",
"p.8.A.T.f 5 5 f 1 , : = 1 J j 2 (.Y k I.7.T S g Z 1 r y r Z S S l s Y J T./.`.+.X.o._ O.I H.R.I D.t.J I.S Y E.V.P s i.X.k C I.G ",
"S I I Y k 5 ; * C 1 f 5 f ; , 3 l h < J J 5 s r f 4 u f 1 s S d 1 1 C , | J.C , J J h J l Q.D.s W.I h ' 5 , 4 , 4 s h = 1 5 +.] ",
"h I I.N.Z.N.] k +.Z G C _ I C H.u.7.t.t.! :.0.T , , , 5 , , 1 4 > u ; ; r 1 > 5 < * 1 , 1 h f 4 7 & 6 , 5 J 6 4 Y Z 1 ; C o.W < ",
"J H._.K.o.o.G.J I C 1 k e.I l Y 7.E G G :.G 9.E C Y S C C ! C g s V z k f s k t.g h f 5 5 1 Z f h 4 7 j l J 0 C S F f 5 M.o.J.o.",
"/ D.L.J.` U U.I k T F l m.] J D.I.t.u.i.i.u.Y 4 f C s 1 1 F l f d z g 6 C C k 7.g f k h 5 Z @.1 h 5 h 6 h h f Z Z ! W 6 e.N.D.O.",
"J l (.E.N.W.Q.I C ( J.> | k ; > C S 1 * < * + & : : O & y y ; ; = h 3 , 1 5 , f , 4 C 5 f 1 @.Z C 4 h j f h s d ,.u.J.1 X.u.u.! ",
"> & < f f 5 k , ; 1 g 1 1 + ; + X 1 : & ; & - Z u Z = r Z g < . o k 5 , ' ' C 3 k C I 1 , , J 1 & * k , ; 4 * = Z C 4 & h g r = ",
"O X ; g : & d < + = u u g , ; * = Z u ; ; = - u d < & y u 1 < ; h Q.] _ /.G.t.I I.N.K.N.P (.C.+.h H.y.8.5 J J k , , l S W T > o ",
"l f 1 y ; = 1 < & $ g g Z = : - = y y : < ; & d g < O & 1 s C g I L.D.H.D.E 3.E u.T T r.( r.O.K.Y A.U y.I.G.G.R.N.r.t.>.*.t.(.6 ",
"l ' k 1 , , , , & # = 1 < + ; ; $ = , $ = = & r y , , 5 1 , , , k D.C h W T f h _.t.7.r.n.O.V.N.I J.] G.' D.+.] O.O.E 9.7.t.+.> ",
"l f 4 5 F Y _ ( l I 5 5 h 6 g u r g I , , 5 5 J ] S C S 1 r + & , ; & & I I 3 s h k C P J H l.l 2 h 5 J 1 s 4 k 3 l g , s ; I h ",
"] f h 5 s S ] Y l J k g k k Z f y g Y C f h _ +.F d S G 1 Z 1 , k d s f t.G | ` < , W C H h 4 # ; = | S S g o.Y 5 , r 5 C < ] X.",
"' 6 h 5 s l Y Y h h h 5 g f s 5 1 1 J C 6 s R.] f f g y , z : , Z g f s 5.U T C y g M.` P 7 4 ; 1 , | h 4 , l k 4 a d s J ; Y C ",
"= 1 1 1 h > ; s 1 , # & > & < r $ , C 1 1 s C ; 1 ; r 1 : $ % * r r r 2 F l C g 1 5 7 h I f J J 1 > 5 J Y | o.J 3 > = y h & s 4 "
};
